<svg xmlns="http://www.w3.org/2000/svg" width="393" height="286" fill="none" viewBox="0 0 393 286">
  <path fill="#F0BD40" d="M239.809 150.854v.022c-1.826 0-3.66.1-5.478-.023-3.063-.207-5.898-1.024-8.048-3.457-.476-.539-1.143-1.032-1.818-1.252-2.77-.902-4.682-2.999-6.686-4.872-1.79-1.674-3.131-3.815-4.79-5.64-1.489-1.64-2.044-3.623-1.797-5.639.392-3.216 1.333-6.299 3.923-8.589.878-.778 1.762-1.607 2.42-2.567 1.058-1.541 2.413-2.688 3.892-3.793 1.658-1.239 3.348-1.795 5.405-1.326.691.159 1.644.211 2.171-.144 1.857-1.252 3.888-1.74 6.057-1.913.412-.032.82-.256 1.205-.441 3.782-1.816 7.523-1.403 11.188.297 2.347 1.089 4.714 2.047 7.271 2.545 1.701.331 3.448.936 4.551 2.26 1.421 1.707 3.14 2.468 5.228 2.704.212.023.418.092.625.155 3.975 1.219 6.725 5.196 6.513 9.316-.188 3.645-1.188 6.959-3.613 9.775-.555.645-.94 1.434-1.423 2.144-2.386 3.502-5.12 6.656-9.048 8.493-1.149.536-2.42 1.084-3.649 1.116-2.581.071-5.125.232-7.657.752-.828.171-1.714.069-2.574.076-1.289.008-2.578.001-3.868.001Zm-215.18 128.42c2.534.412 5.102.506 7.611 1.22a10.98 10.98 0 0 0 5.11.23c1.143-.223 2.36-.151 3.537-.098 2.036.09 4.08.187 6.098.438 1.266.156 2.562.442 3.723.948 2.255.978 4.57 1.289 6.939.873 1.461-.256 2.772-.075 4.06.547 2.54 1.221 4.974.754 7.45-.288 2.826-1.192 3.887-3.546 4.436-6.284.295-1.47.547-2.948.755-4.43.267-1.91.627-3.825.67-5.744.1-4.409.077-8.821.013-13.23-.026-1.71-.307-3.414-.458-5.122-.066-.748-.14-1.5-.138-2.249.026-10.648.041-21.299.121-31.947.015-1.818.333-3.636.499-5.454.204-2.246.385-4.491.596-6.735.293-3.103.574-6.205.914-9.303.294-2.668.723-5.32.98-7.99.24-2.502.782-4.863 2.218-6.98.537-.792.901-1.699 1.35-2.567.632-.253 1.3-.389 1.807-.748 2.445-1.727 5.197-1.787 8.025-1.684 2.904.107 5.76-.113 8.634-.795 2.696-.641 5.513-.836 8.292-1.034 1.018-.072 2.121.29 3.108.662 2.321.874 4.622 1.767 7.15 1.794.831.009 1.386.493 1.903 1.065 2.903 3.207 5.257 6.665 6.853 10.797 1.439 3.727 1.967 7.394 1.886 11.304-.131 6.452-.092 12.908-.139 19.36-.036 4.844-.648 9.642-1.151 14.45-.469 4.49-.877 8.989-.714 13.514.046 1.323-.244 2.308-1.375 3.344-1.105 1.016-1.552 2.814-1.295 4.455.851 5.408 1.774 10.807 2.711 16.203.145.838.444 1.666.78 2.453.293.683.632 1.405 1.14 1.925 3.927 4.032 8.479 6.159 14.223 4.484.505-.148 1.042-.178 1.594-.268.462.37.914.663 1.283 1.038 1.701 1.72 3.761 2.782 6.003 3.656 4.282 1.668 8.626 1.804 12.958.532 1.682-.495 3.084-.446 4.659.185 1.588.635 3.275 1.02 4.917 1.517 1.94.587 3.84.194 5.722-.27 1.226-.303 2.054-1.123 2.516-2.303.513-1.309.892-2.641.872-4.071-.042-2.902.009-5.809-.104-8.709-.07-1.752.093-3.413.766-5.044 2.795-6.772 2.735-13.832 2.051-20.949-.328-3.419-1.092-6.8-.829-10.266.04-.537-.04-1.089.058-1.61.78-4.16.594-8.367.49-12.548-.083-3.262.536-6.42.866-9.622.222-2.134.575-4.278.539-6.413-.076-4.553.805-8.981 1.476-13.44.173-1.156.583-2.288.975-3.4.932-2.632 1.992-5.223 2.858-7.876.831-2.548 2.327-4.307 4.976-5.008.724-.191 1.464-.428 2.104-.803 1.412-.826 2.79-.489 4.314-.368 3.964.316 5.733 2.992 7.242 6.035.567 1.141.87 2.425 1.204 3.668.762 2.821 1.711 5.547 3.496 7.913.734.974.975 2.088 1.11 3.304.26 2.343.614 4.684 1.118 6.987a41.35 41.35 0 0 0 1.742 5.848c.661 1.737 1.136 3.451 1.006 5.324-.262 3.815.459 7.46 1.774 11.047.621 1.694.97 3.528 1.178 5.329.451 3.915 1.632 7.565 3.64 10.929a15.908 15.908 0 0 1 1.954 5.072c.428 2.1 1.085 4.154 1.673 6.22.473 1.66 1.12 3.21 2.279 4.572.673.79.972 1.895 1.453 2.851.769 1.533 1.441 3.128 2.351 4.572 1.476 2.343 3.524 4.027 6.264 4.775.826.226 1.614.592 2.425.873 2.281.789 4.424.72 6.315-1.001.221-.202.534-.3.92-.508.594.448 1.237.833 1.757 1.344 1.8 1.765 3.975 2.816 6.272 3.816 4.059 1.764 8.364 1.828 12.615 2.317.825.095 1.712-.109 2.541-.3 1.851-.423 3.623-.333 5.341.515 1.392.688 2.872.79 4.404.716 1.324-.064 2.575-.315 3.652-1.087a4.824 4.824 0 0 1 3.016-.929c1.83.044 3.348-.759 4.719-1.827 2.473-1.928 5.176-3.465 7.936-4.927 3.285-1.74 5.999-4.188 8.237-7.118.964-1.262 2.118-2.034 3.543-2.635a33.075 33.075 0 0 0 4.557-2.385c2.046-1.271 3.639-2.991 4.651-5.227.892-1.971 2.161-3.683 3.556-5.349 1.299-1.552 2.343-3.334 3.392-5.079.829-1.379 1.367-2.943 2.259-4.273 4.569-6.819 6.633-14.638 8.98-22.336 1.032-3.387 1.84-6.843 2.68-10.284.24-.983.641-1.806 1.34-2.514 1.374-1.394 2.404-3.022 3.224-4.796.922-1.994 2.41-3.565 4.018-4.994 2.49-2.212 5.139-4.25 7.584-6.506 2.352-2.173 5.152-3.472 8.051-4.637 1.096-.441 2.203-.869 3.332-1.213 4.003-1.222 6.293-4.091 7.264-7.956 1.044-4.159 2.004-8.374 1.528-12.735-.047-.427-.124-.869-.064-1.288.504-3.507-.883-6.501-2.461-9.469-1.102-2.068-2.783-3.255-5.064-3.542-2.408-.301-4.739-.137-6.623 1.695-2.401 2.336-5.313 4.009-7.899 6.097-1.308 1.059-2.398 2.474-3.324 3.9-1.217 1.878-2.756 3.203-4.784 4.138-3.342 1.541-6.297 3.708-9.029 6.158-1.615 1.45-3.364 2.634-5.356 3.524-5.031 2.25-8.94 5.903-12.327 10.158-2.006 2.524-4.033 5.038-5.9 7.665-1.048 1.473-1.97 3.093-2.628 4.772-1.366 3.496-2.517 7.076-3.76 10.62a7.322 7.322 0 0 1-.361.896c-2.443 4.781-4.892 9.559-7.34 14.339-.347.677-.703 1.356-1.525 1.549-2.708.639-4.746 2.461-6.988 3.923-1.079.705-2.17 1.389-3.266 2.066-3.94 2.431-8.298 3.359-12.853 3.755-2.96.257-5.765-.068-8.543-1.096-1.037-.383-1.968-.843-2.734-1.624-1.672-1.705-3.555-3.127-5.692-4.187-.911-.452-1.547-1.109-2.036-1.981-1.27-2.264-2.783-4.364-4.648-6.164-1.171-1.129-1.692-2.495-1.8-4.017-.206-2.895-.41-5.799-.392-8.696.01-1.899.96-3.57 2.481-4.703 1.86-1.385 3.157-3.188 4.449-5.052.914-1.317 1.963-2.556 3.064-3.725 1.475-1.564 3.072-3.012 4.586-4.54.614-.62 1.22-1.135 2.128-1.346 2.001-.468 3.369-1.882 4.48-3.489a24.633 24.633 0 0 0 2.186-3.936c.963-2.159 1.69-4.424 2.695-6.56.771-1.64 1.625-3.312 2.784-4.681 2.188-2.588 3.767-5.471 5.063-8.566.577-1.378 1.414-2.646 2.044-4.006.582-1.259 1.205-2.535 1.524-3.872.4-1.687.857-3.315 1.696-4.843.789-1.437 1.145-2.999 1.117-4.652-.049-2.888.379-5.803-.687-8.625-.254-.674-.176-1.486-.188-2.235-.033-2.044-.117-4.091-.028-6.131.152-3.486-.528-6.81-1.536-10.126-1.04-3.426-3.206-5.844-6.341-7.327-2.808-1.33-5.676-2.536-8.736-3.283-3.036-.74-5.907-2.017-8.56-3.672-2.503-1.561-5.169-2.6-8.041-3.192a40.689 40.689 0 0 1-7.376-2.278c-4.986-2.067-10.247-2.366-15.539-1.838a21.842 21.842 0 0 1-7.345-.485c-2.614-.625-5.263-1.07-7.968-1.016-3.67.07-7.282-.35-10.883-1.07-2.76-.553-5.567-.627-8.264.435-1.333.526-2.705.68-4.113.628-3.166-.116-6.198.532-9.166 1.564-.71.246-1.404.567-2.133.728-4.464.992-8.035 3.5-11.299 6.551a9.874 9.874 0 0 1-.745.615c-.081.06-.195.08-.468.185-.255-.017-.687-.004-1.1-.085-1.368-.272-2.717-.722-4.097-.844-3.155-.279-5.992-1.151-8.7-2.94-2.555-1.688-5.587-2.154-8.688-1.478-.944.208-1.906.342-2.863.49-1.827.281-3.631.242-5.421-.307-1.232-.377-2.483-.716-3.748-.95-2.35-.437-4.718-.51-6.999.333-1.344.496-2.703.605-4.111.636-7.198.153-14.394.348-21.592.533-.536.013-1.089.007-1.605.135-3.495.872-7.053.62-10.595.628-3.442.009-6.885-.003-10.326-.078-3.347-.072-6.654.078-9.896 1.02-.81.236-1.707.307-2.552.262-3.195-.172-6.184.632-9.088 1.826-2.095.86-4.242 1.499-6.448 2.02-1.552.367-3.078.955-4.526 1.635-1.944.913-3.802 2.01-5.696 3.03-2.362 1.271-4.76 2.485-7.074 3.839a49.94 49.94 0 0 0-4.803 3.227c-2.144 1.616-4.197 3.352-6.305 5.015a19.576 19.576 0 0 0-4.332 4.736c-1.408 2.161-2.97 4.226-4.302 6.432a40.08 40.08 0 0 0-2.74 5.458c-1.676 4.075-3.258 8.187-4.797 12.315a50.82 50.82 0 0 0-1.681 5.528c-.419 1.684-.843 3.331-1.963 4.715-1.49 1.84-2.065 4.018-2.052 6.321.021 3.528-.777 6.804-2.543 9.861-1.433 2.479-2.061 5.176-2.014 8.035.028 1.721.052 3.443.09 5.163.052 2.476-.008 4.909-.869 7.309-.888 2.479-.972 5.103-.047 7.589 1.211 3.251.944 6.542.694 9.868-.104 1.388-.182 2.795-.09 4.18.23 3.428.604 6.846.844 10.272.204 2.924.667 5.743 2.195 8.33.405.69.519 1.618.56 2.448.225 4.508.376 9.018.581 13.526.04.855.168 1.712.33 2.554.986 5.168 2.017 10.326 2.985 15.497.435 2.315.801 4.644 1.116 6.977.197 1.463.852 2.635 1.85 3.671.746.777 1.453 1.568 1.57 2.736.184 1.835 1.463 2.82 2.995 3.491 1.078.47 2.23.78 3.348 1.161.764-.196 1.493-.244 2.042.477Z"/>
  <path fill="#A87E23" d="M249.851 53.973c-.5-1.863-.926-3.75-1.516-5.586-1.356-4.22-3.323-8.156-5.846-11.8-1.172-1.696-2.081-3.47-2.621-5.48-.584-2.176-1.439-4.274-2.129-6.422-.662-2.055-1.476-4.003-2.754-5.787-.8-1.116-1.242-2.488-1.836-3.75-1.298-2.762-3.221-4.76-6.329-5.477-.923-.212-1.768-.132-2.483.296-1.65.986-3.212 2.066-4.062 3.963-1.459 3.255-2.518 6.625-3.264 10.1-.247 1.155-.507 2.325-.564 3.499-.14 2.861-.984 5.486-2.407 7.94-2.295 3.952-3.635 8.237-4.559 12.684-.261 1.25-.685 2.466-1.12 4.002-.657-.537-1.29-.817-1.529-1.293-.719-1.439-1.315-2.941-1.903-4.441-1.776-4.538-4.876-8.052-8.544-11.136a584.243 584.243 0 0 1-3.441-2.92c-1.267-1.086-2.077-2.444-2.437-4.078-.162-.733-.412-1.453-.522-2.193a8.792 8.792 0 0 0-2.589-5.087c-1.256-1.229-2.133-2.59-2.684-4.28-.787-2.413-2.564-3.885-5.027-4.565-1.113-.308-2.08-.18-3.065.427-1.911 1.178-3.303 2.68-3.611 5.01-.212 1.594-.697 3.176-.708 4.767-.026 3.756.115 7.517.268 11.273.135 3.324.406 6.643.563 9.97.272 5.685.491 11.376.755 17.061.156 3.33.316 6.657.554 9.98.102 1.387.28 2.797.659 4.13.968 3.407 2.052 6.782 3.123 10.16.518 1.635 1.58 2.62 3.272 3.243 2.16.796 4.293 1.31 6.592 1.232 1.61-.053 3.23.091 4.838.004 3.57-.193 7.075.383 10.603.728 1.815.178 3.636.358 5.456.386 7.2.105 14.403.133 21.604.23 2.697.038 5.367-.034 7.991-.762 2.096-.584 4.254-.595 6.406-.515 2.49.092 4.923-.201 7.356-.73 1.56-.34 3.178-.529 4.774-.563 3.546-.08 7.096-.015 10.644-.019 1.297-.001 2.486.16 3.702.819 1.275.688 2.666 1.154 4.294 1.021 2.046-.167 3.17-1.104 3.716-2.933.337-1.132.632-2.279.858-3.436.352-1.79.686-3.588.914-5.396.132-1.054.093-2.138.046-3.203-.164-3.667-.929-7.179-2.225-10.648-1.372-3.667-1.584-7.627-1.056-11.464.705-5.145.715-10.288.743-15.444.018-3.441.008-6.881 0-10.323-.002-.752-.048-1.504-.064-2.257-.07-3.373-2.484-4.743-5.155-5.184-.677-.112-1.567.081-2.132.465-1.589 1.083-3.112 2.254-4.145 3.972-3.326 5.53-6.702 11.038-8.42 17.335-1.068 3.91-3.519 7.103-5.303 10.64-.369.733-1.117.928-1.863 1.136-.389.11-.717.444-1.073.675-.231.55-.475.696-.745.024Z"/>
  <path fill="#fff" d="M239.809 150.854c1.29 0 2.579.007 3.868-.001.86-.007 1.746.095 2.574-.076 2.532-.52 5.076-.681 7.657-.752 1.229-.032 2.5-.58 3.649-1.116 3.928-1.837 6.662-4.991 9.048-8.493.483-.71.868-1.499 1.423-2.144 2.425-2.816 3.425-6.13 3.613-9.775.212-4.12-2.538-8.097-6.513-9.316-.207-.063-.413-.132-.625-.155-2.088-.236-3.807-.997-5.228-2.704-1.103-1.324-2.85-1.929-4.551-2.26-2.557-.498-4.924-1.456-7.271-2.545-3.665-1.7-7.406-2.113-11.188-.297-.385.185-.793.409-1.205.441-2.169.173-4.2.661-6.057 1.913-.527.355-1.48.303-2.171.144-2.057-.469-3.747.087-5.405 1.326-1.479 1.105-2.834 2.252-3.892 3.793-.658.96-1.542 1.789-2.42 2.567-2.59 2.29-3.531 5.373-3.923 8.589-.247 2.016.308 3.999 1.797 5.639 1.659 1.825 3 3.966 4.79 5.64 2.004 1.873 3.916 3.97 6.686 4.872.675.22 1.342.713 1.818 1.252 2.15 2.433 4.985 3.25 8.048 3.457 1.818.123 3.652.023 5.478.023v-.022Z"/>
  <path fill="#000" d="M274.385 83.762c-.546-.183-1.035-.33-1.514-.508-3.626-1.35-7.246-2.65-11.185-2.852-1.92-.097-3.837-.49-5.727-.89-4.844-1.027-9.705-1.663-14.678-1.495-13.003.44-26.002-.138-39.002-.248-.428-.004-.856-.082-1.284-.088-2.47-.038-4.942-.114-7.412-.082-2.606.032-5.11.562-7.468 1.747-1.733.873-3.582 1.397-5.641 1.61-.465-4.783-.932-9.475-1.372-14.169-.181-1.925-.253-3.86-.46-5.78-.3-2.774-.729-5.536-1.011-8.312-.566-5.552-1.502-11.07-1.496-16.674.002-.318-.118-.635-.141-.955-.12-1.607-.328-3.215-.316-4.82.025-3.34-.145-6.652-.669-9.956-.235-1.475-.207-2.995-.234-4.495-.005-.364.242-.733.403-1.184.437.274.781.382.96.616 1.369 1.788 2.737 3.58 4.044 5.416 1.056 1.482 2.048 3.011 3.023 4.547.397.627.841 1.297.977 2.003.52 2.706 1.676 5.076 3.405 7.201.334.408.492.953.783 1.404.695 1.08 1.301 2.25 2.164 3.176.927.995 1.472 2.113 1.741 3.379.228 1.066.532 2.045 1.227 2.925.381.483.476 1.18.767 1.747.384.748.718 1.568 1.278 2.165a11.441 11.441 0 0 1 2.128 3.187c.33.734.939 1.565 1.635 1.874 2.739 1.222 5.489 2.419 8.66 2.031 1.991-.243 3.521-1.013 4.36-2.821.812-1.748 1.584-3.535 2.16-5.372 1.824-5.827 2.916-11.878 5.42-17.504.424-.952.439-2.09.62-3.146.2-1.164.197-2.397.597-3.485.936-2.552 1.414-5.173 1.676-7.856.108-1.084.426-2.06 1.499-2.895.467.511.993.895 1.245 1.414.37.762.43 1.681.823 2.428 1.067 2.022 1.691 4.169 2.095 6.398.057.315.161.626.277.926 1.968 5.114 2.74 10.614 5.043 15.621.032 1.8 1.112 2.93 2.516 3.69.092.933.216 1.678.229 2.426.052 2.944.471 5.765 2.293 8.225.372.503.6 1.156.743 1.776.351 1.515 1.188 2.47 2.737 2.816.623.14 1.192.512 1.814.648 2.23.496 4.292.18 5.856-1.634a70.339 70.339 0 0 0 3.604-4.539c3.148-4.343 5.49-9.21 8.728-13.499a4.69 4.69 0 0 0 .626-1.124c1.47-3.808 4.019-7.105 5.192-11.057.296-.996.794-1.937 1.878-2.764.561 1.447 1.081 2.712 1.532 4 .173.496.212 1.047.261 1.576.161 1.71.367 3.421.431 5.136.152 4.076.416 8.155-.25 12.223-.186 1.149-.32 2.396-.078 3.512.662 3.056 1.089 6.12 1.122 9.248a9.71 9.71 0 0 0 .308 2.234c1.448 5.795.955 11.762 1.538 17.632.101 1.026.197 2.139-.48 3.247Zm-41.847 163.476c-.181-1.489-.888-3.12-2.156-4.54-.469-.525-.891-1.3-.916-1.977-.075-1.959-.965-3.519-2.123-4.95-1.456-1.798-1.882-3.721-1.441-6.01.515-2.666.068-5.172-2.215-7.008-1.46-1.174-1.55-2.627-1.246-4.355.276-1.569.388-3.223.217-4.803-.241-2.234-.748-4.446-1.249-6.644-.594-2.605-1.443-5.172-.636-7.89.086-.298.032-.643.013-.964-.213-3.754-.405-7.508-.664-11.258-.103-1.497-.311-2.992-.553-4.473-.172-1.056-.387-2.123-.747-3.125-1.477-4.107-3.893-7.634-6.864-10.799-1.724-1.836-3.735-3.155-6.181-3.924-2.296-.723-4.599-.911-6.979-.997-5.535-.202-9.375 2.769-12.527 6.738-1.581 1.99-2.61 4.436-3.765 6.739-1.072 2.137-1.471 4.476-1.645 6.855-.103 1.39-.274 2.777-.415 4.164-.372 3.648-.716 7.325.116 10.922 1.609 6.967 1.023 13.924-.081 20.83-1.156 7.225-2.595 14.394-1.624 21.765.028.211.002.429.016.645.133 2.21-.326 7.115-1.055 9.316-1.421 4.294-1.323 8.702-.989 13.094.216 2.837-.438 5.525-.65 8.3-1.854.929-3.756 1.365-5.677 1.265-2.779-.144-5.539-.643-8.319-.836-3.206-.224-6.42-.552-9.62.263-3.266.833-6.605 1.046-9.906.282-2.611-.602-5.163-1.457-7.74-2.204-1.122-.325-1.92-1.07-2.183-2.174-.373-1.558-.763-3.151-.803-4.739-.065-2.497-.234-4.931-1.404-7.039 1.747-4.993 1.719-3.302 1.938-9.876.013-.43.078-.858.09-1.288.195-7.097.2-14.192-.528-21.268-.252-2.46-.342-4.874.363-7.344.553-1.933.652-4.029.728-6.061.137-3.653-.02-7.319.181-10.968.208-3.787-.558-7.475-.806-11.212-.074-1.097-.302-2.071-1.08-2.947-.619-.696-1.124-1.554-1.474-2.422-2.073-5.156-5.71-9.047-9.945-12.464a5.211 5.211 0 0 0-1.404-.783c-2.613-.991-5.219-1.928-8.113-1.811-1.699.068-3.444-.096-5.118-.421-3.324-.647-6.593-.676-9.908.052-2.193.481-4.324 1.287-6.64 1.224-.821-.023-1.689.32-2.474.645-1.98.82-3.878 1.866-5.898 2.564-2.986 1.031-5.032 3.002-6.874 5.507-2.028 2.759-2.898 5.729-2.79 9.045.124 3.775-.266 7.506-.649 11.25-.272 2.664-.213 5.328.305 8.014.59 3.042.776 6.16 1.13 9.248a1.92 1.92 0 0 1-.056.639c-.596 2.5-.851 5.063-1.744 7.517-1.214 3.34-1.891 6.815-1.867 10.41.037 5.912.003 11.825.013 17.737.002 1.075.038 2.151.12 3.221.151 1.924.308 3.85.535 5.764.25 2.118-.22 4.062-1.27 5.878-1.638 2.83-3.663 5.008-7.365 4.709-1.598-.129-3.222.047-4.834.105-2.378.086-4.703-.12-7.019-.758-3.696-1.022-7.553-1.016-11.19-.174-4.367 1.014-8.75 1.163-13.127 1.072-3.174-.066-6.304-.838-8.91-3.144-2.172-1.921-3.494-3.922-3.114-6.954.182-1.456-.242-2.979-.243-4.472-.001-2.363.2-4.727.175-7.088-.04-3.44-.247-6.878-.31-10.318-.1-5.376-.166-10.745.347-16.117.421-4.387.427-8.8.03-13.211-.28-3.101-.474-6.22-.52-9.333-.078-5.157.006-10.317-.017-15.476-.004-.961-.188-1.923-.294-2.883-.362-3.208-.488-6.418-.236-9.642.15-1.926.388-3.86.338-5.784-.132-5.082.532-10.086 1.315-15.076.35-2.232.83-4.442.715-6.716-.058-1.112.284-2.068.798-3.058.79-1.513 1.514-3.089 2.023-4.714.548-1.75 1.104-3.475 1.992-5.086.308-.562.679-1.153.763-1.766.324-2.399 1.586-4.424 2.442-6.612.564-1.444 1.392-2.652 2.46-3.735.755-.765 1.475-1.567 2.242-2.319a5253.353 5253.353 0 0 1 15.22-14.873c.53-.515 1.121-1.053 1.788-1.328 2.186-.897 4.372-1.865 6.649-2.449a21.545 21.545 0 0 0 5.636-2.303c2.919-1.71 6.075-2.703 9.417-3.143 3.002-.394 5.888-1.144 8.632-2.488 2.904-1.42 5.89-2.654 9.255-2.305.315.032.641-.048.963-.077 5.692-.538 11.376-.674 17.044.274.844.142 1.716.148 2.574.167 3.655.076 7.311.157 10.967.19 7.848.069 15.699.03 23.545.197 3.646.077 7.312.33 10.915.87 3.316.496 6.615.736 9.953.718a283.35 283.35 0 0 1 6.454.044c.5.009 1.092-.127 1.556.713-.299 1.167-1.008 2.363-1.575 3.616-1.461 3.233-2.896 6.492-3.641 9.968-.631 2.939-.984 5.936-1.444 8.911-.37 2.385-.358 4.857.742 6.954 1.184 2.263 1.704 4.642 2.044 7.052.435 3.072 1.603 5.68 3.378 8.215 2.677 3.825 6.354 6.335 10.244 8.635 1.66.981 3.404 1.832 5.154 2.648 1.847.862 3.708 1.726 5.632 2.386 2.124.73 4.687.068 5.592-1.356 1.092-1.714 1.259-3.672.842-5.596-.374-1.716-1.786-2.553-3.314-3.241-2.642-1.188-5.312-2.348-7.853-3.732-3.32-1.809-6.379-3.972-8.345-7.372-.494-.853-.876-1.673-1.006-2.669-.286-2.223-.66-4.435-1.06-6.642-.112-.618-.297-1.333-.7-1.773-1.366-1.488-1.014-3.18-.806-4.891.59-4.865 2.297-9.356 4.422-13.737a15.702 15.702 0 0 1 4.888-5.89c3.863-2.853 8.406-4.235 12.838-5.846.493-.179 1.06-.197 1.593-.213 1.936-.054 3.872-.139 5.805-.094 6.983.166 13.963.476 20.946.55 7.093.073 14.193.04 21.284-.163 3.904-.112 7.736.404 11.517 1.063 3.285.57 6.567 1.061 9.868 1.508 3.427.462 6.64 1.632 9.423 3.854 1.33 1.063 2.8 2.047 4.357 2.708 2.459 1.044 4.315 2.782 6.137 4.604.606.606 1.124 1.3 1.671 1.964 2.252 2.732 4.543 5.434 6.736 8.214 1.501 1.904 2.339 4.072 2.233 6.576-.04.946.22 1.906.356 2.858.136.956.307 1.908.43 2.867.822 6.468-1.715 12.236-3.814 18.087-.208.584-.748 1.042-1.086 1.586-.622 1.003-1.364 1.967-1.778 3.052a15.01 15.01 0 0 1-3.476 5.359c-.757.76-1.52 1.54-2.138 2.412-1.738 2.448-3.72 4.797-5 7.475-1.159 2.424-2.443 4.769-3.666 7.153-.85 1.659-2.073 2.957-3.388 4.255-3.045 3.006-6.424 5.684-8.84 9.326-1 1.507-2.28 2.824-3.026 4.522-.252.576-.654 1.162-1.144 1.538-1.859 1.426-2.4 3.442-2.895 5.584-.507 2.187-1.021 4.448-2.019 6.431-1.444 2.868-1.805 5.668-.832 8.691.196.612.282 1.257.444 1.881.839 3.233 1.806 6.415 3.798 9.176.876 1.215 1.664 2.5 2.605 3.661.447.552 1.132.931 1.753 1.319.812.507 1.664.951 2.504 1.412.654.361 1.287.783 1.979 1.053 2.5.972 5.013 1.912 7.537 2.824.904.327 1.848.548 2.778.8 1.344.367 2.733.611 4.029 1.104 1.54.587 3.1.855 4.727.87 1.074.01 2.152-.014 3.222.049 2.534.148 4.955-.015 6.836-2.04.14-.152.352-.243.542-.34 2.953-1.527 5.858-3.153 8.873-4.543 3.547-1.632 6.132-4.214 8.283-7.39 1.313-1.943 2.497-4.002 4.496-5.424 1.089-.774 1.493-2.088 1.732-3.371.517-2.769 1.808-5.249 2.984-7.749.734-1.562 1.622-3.008 1.757-4.79.047-.621.287-1.257.559-1.83 1.472-3.102 3.072-6.147 4.457-9.286 2.245-5.084 6.16-9.045 9.012-13.714.109-.179.275-.336.44-.47 1.944-1.577 3.265-3.668 4.812-5.593 4.816-5.997 10.365-11.2 17.323-14.717 1.05-.531 2.025-1.215 3.033-1.831 2.381-1.455 4.689-3.056 7.167-4.324 1.894-.969 3.965-1.664 6.029-2.213 1.888-.504 2.905.065 3.459 1.95.997 3.399 2.042 6.764 3.274 10.094.927 2.498.278 4.846-2.378 6.313-1.108.612-2.208 1.449-2.963 2.449-1.737 2.298-4.035 3.808-6.415 5.302a114.946 114.946 0 0 0-7.453 5.081c-2.241 1.661-4.335 3.52-6.516 5.264-2.448 1.959-4.772 4.011-6.261 6.856-.391.748-1.043 1.357-1.554 2.047-1.15 1.548-2.302 3.094-3.422 4.665-.684.96-1.207 2.055-1.984 2.925-1.331 1.491-2.122 3.207-2.679 5.088-.396 1.336-.731 2.731-1.381 3.944a24.483 24.483 0 0 0-2.896 10.152c-.078 1.212-.407 2.312-1.096 3.32-1.102 1.612-1.844 3.384-2.399 5.258-.301 1.022-.772 2.001-1.223 2.974-2.281 4.912-5.518 9.199-8.809 13.454-2.245 2.902-4.925 5.39-7.455 8.026-3.04 3.168-6.83 5.18-10.542 7.334-.638.37-1.411.506-2.12.756-3.14 1.1-6.351 2.038-9.398 3.357-2.008.869-3.97 1.584-6.162 1.639-.642.014-1.284.128-1.918.249-3.285.627-6.596.92-9.942.871-1.827-.026-3.664-.075-5.483.057-4.751.348-9.412.204-14.021-1.277-3.379-1.084-6.74-2.102-9.566-4.362-.334-.266-.7-.522-1.09-.685-2.016-.841-3.704-2.113-5.216-3.68-.811-.841-1.852-1.463-2.663-2.304-1.408-1.461-2.719-3.017-4.508-5.024Zm52.391-157.615c0-.692-.042-1.444.005-2.189.445-7.001-.149-13.975-.551-20.953-.062-1.072-.08-2.171-.332-3.204-.722-2.946-.598-6.003-1.117-8.931-.859-4.839-.104-9.639-.36-14.445-.217-4.079-.344-8.164-.64-12.236-.1-1.372-.408-2.798-.961-4.046-.638-1.441-.838-2.866-.799-4.386.019-.752-.049-1.507-.012-2.259.141-2.955-1.445-4.944-3.833-6.225-1.479-.795-3.204-1.322-4.875-1.536-3.735-.479-6.76 1.264-8.387 4.674-1.753 3.678-3.377 7.415-5.081 11.116-.357.776-.897 1.474-1.217 2.263-1.666 4.097-4.527 7.51-6.506 11.425-.825 1.634-1.778 3.171-3.234 4.495-.458-.837-.691-1.795-1.302-2.276-1.701-1.343-2.081-3.13-2.238-5.101a5.432 5.432 0 0 0-.52-1.852c-1.631-3.426-2.318-7.143-3.403-10.738-1.393-4.616-2.683-9.265-4.465-13.756-.479-1.204-5.042-7.062-6.14-7.774-2.267-1.468-4.774-2.031-7.403-1.483a6.507 6.507 0 0 0-4.129 2.884c-1.807 2.907-3.856 5.783-4.382 9.267-.545 3.616-1.536 7.122-2.238 10.689-.438 2.23-.859 4.384-1.828 6.453-.494 1.054-.623 2.274-.943 3.411-.929 3.301-1.873 6.6-2.883 10.152-.5-.415-1.09-.657-1.206-1.041-.65-2.15-2.174-3.943-2.443-6.26-.079-.68-.616-1.383-1.109-1.922-1.466-1.597-2.511-3.456-3.686-5.254-1.372-2.1-2.545-4.196-3.021-6.675-.119-.616-.421-1.236-.779-1.76-1.752-2.568-3.549-5.104-5.337-7.647-.495-.702-.997-1.4-1.527-2.076-.856-1.094-1.738-2.169-2.606-3.254-.664-.83-1.431-1.6-1.966-2.506-1.574-2.676-4.008-3.802-6.958-3.969-4.6-.26-8.55 2.743-9.716 7.207-.498 1.906-.574 3.818-.452 5.758.253 4.071.072 8.176.958 12.202.16.722.071 1.501.08 2.254.042 3.22-.202 6.455.559 9.635.075.31.065.644.061.965-.045 4.316.767 8.555 1.122 12.827.498 5.992 1.837 11.89 1.786 17.948-.021 2.667.586 5.336.867 8.008.112 1.067.14 2.145.157 3.22.004.295-.168.593-.282.968-2.59-.061-5.139-.127-7.69-.179-1.29-.026-2.582-.056-3.873-.037-3.445.052-6.86-.103-10.269-.747-4.451-.842-8.984-.809-13.498-.877-4.622-.07-9.246-.092-13.868-.127-3.658-.029-7.316-.033-10.972-.072-3.868-.04-7.716-.197-11.578-.622-5.02-.551-10.091-.488-15.142-.015-1.494.141-3.001.183-4.504.201-1.745.023-3.389.319-4.981 1.114a66.692 66.692 0 0 1-5.91 2.577 17.223 17.223 0 0 1-3.731.96c-4.95.697-9.678 2.007-13.99 4.62-.545.33-1.15.58-1.754.795-2.631.936-5.25 1.913-7.912 2.746-2.54.796-4.612 2.276-6.478 4.091-5.006 4.869-10 9.755-14.984 14.648a108.231 108.231 0 0 0-3.364 3.479c-1.332 1.425-2.436 2.98-3.025 4.89-.313 1.016-.935 1.932-1.348 2.924-.536 1.284-1.012 2.592-1.497 3.898-.376 1.001-.71 2.018-1.09 3.018-.268.703-.686 1.36-.864 2.08-.67 2.735-1.756 5.271-3.154 7.723-1.075 1.883-1.414 4.043-1.406 6.229.01 2.152-.224 4.267-.549 6.406-.857 5.626-1.721 11.265-1.485 17.004.069 1.696-.244 3.416-.471 5.112-.2 1.494-.419 2.957-.132 4.484.219 1.152.128 2.357.245 3.532.438 4.385.554 8.782.528 13.186-.012 2.038.128 4.082.027 6.114-.125 2.484.152 4.926.337 7.392.483 6.434.484 12.865.026 19.322-.36 5.024-.05 10.095-.126 15.144-.081 5.367.712 10.74-.108 16.106-.129.838-.145 1.753.052 2.568.338 1.396.154 2.741.12 4.134-.057 2.354.535 4.703 1.634 6.798 1.329 2.536 5.28 6.664 7.693 7.982 1.387.758 2.996 1.144 4.541 1.562 1.444.389 2.971.492 4.403.914 2.196.651 4.427.934 6.688.8 4.284-.25 8.564-.302 12.819-1.234 3.01-.662 6.193-.708 9.253.314.81.271 1.679.53 2.519.524 4.834-.034 9.67-.102 14.502-.26 2-.066 3.748-.848 5.052-2.481.398-.497.92-.903 1.418-1.311 4.722-3.896 6.554-9.206 7.033-15.028.228-2.764-.17-5.58-.287-8.372-.068-1.605-.193-3.21-.205-4.818-.035-5.163.02-10.327-.065-15.488-.038-2.187.324-4.244 1.004-6.319 1.41-4.3 2.206-8.747 2.754-13.232.091-.739.164-1.568-.074-2.241-1.2-3.394-.364-7.071-1.563-10.478-.333-.952-.064-2.13-.003-3.201.208-3.648.547-7.289.64-10.939.066-2.56 1.252-4.22 3.41-5.356 2.774-1.461 5.609-2.686 8.82-2.864 1.05-.058 2.085-.489 3.121-.77 2.956-.811 5.891-.94 8.923-.251 1.864.423 3.836.505 5.757.493 1.633-.012 2.939.423 4.015 1.632.998 1.123 2.118 2.147 3.021 3.34 1.517 2.004 2.461 4.207 2.355 6.85-.066 1.697.266 3.42.517 5.116.124.841.213 1.93.757 2.421 1.558 1.403 1.159 3.125 1.184 4.807.022 1.398-.022 2.797.016 4.196.087 3.022-.084 6.002-.969 8.93-.928 3.068-.429 6.192-.121 9.292.629 6.327.672 12.666.498 19.011-.026.967-.168 1.933-.16 2.897.011 1.112-.3 2.09-.806 3.072-.636 1.236-1.219 2.516-1.647 3.835-.844 2.592-.557 5.095 1.079 7.325.614.836.738 1.712.861 2.694.335 2.66.625 5.348 1.285 7.936.866 3.402 2.942 5.908 6.375 7.152 4.136 1.498 8.205 3.217 12.568 3.984 3.848.676 7.724.728 11.539-.14 2.454-.559 4.908-.628 7.374-.484 2.676.156 5.364.349 8.008.77 3.851.611 7.487-.298 11.127-1.246 2.179-.57 3.751-1.907 4.791-3.988 1.221-2.45 2.006-4.93 2.056-7.703.046-2.569.69-5.111.382-7.715-.15-1.277-.104-2.576-.192-3.861-.166-2.413.283-4.699 1.252-6.907 1.602-3.645 1.986-7.349 1.191-11.332-.996-4.993-.788-10.074.281-15.064 1.404-6.546 2.018-13.174 2.094-19.841.034-2.993-.328-6.017-.814-8.977-.493-3.006-.693-5.974-.312-8.988.055-.426.15-.858.136-1.283-.125-3.836 1.447-7.079 3.484-10.176 2.392-3.635 4.523-3.583 8.379-2.971.385.062.809.37 1.064.686 1.48 1.83 3.103 3.544 4.237 5.654 1.474 2.734 1.719 5.724 2.04 8.704.184 1.7.228 3.415.35 5.362-.311.292-.834.668-1.208 1.156-1.124 1.465-1.871 3.02-1.388 4.99.362 1.478.681 2.892 1.982 3.896.391.302.675.855.814 1.348.493 1.756.968 3.52 1.325 5.307a11.24 11.24 0 0 1-.195 5.385c-.79 2.824-.432 5.751.488 8.499.387 1.156 1.474 2.077 2.32 3.211-.206 2.185.302 4.34 1.051 6.505.803 2.321 1.292 4.704 3.013 6.661.716.814.912 2.154 1.151 3.296.225 1.083.504 2.123 1.28 2.902 1.051 1.053 1.524 2.386 1.712 3.745.213 1.532.908 2.619 2.143 3.413 1.556 1 2.937 2.126 3.766 3.86.26.544.834.994 1.355 1.352 1.6 1.099 3.109 2.248 4.273 3.864.454.632 1.379 1.007 2.163 1.299 1.637.611 3.117 1.451 4.423 2.597.986.867 2.129 1.41 3.345 1.887 2.096.821 4.123 1.82 6.219 2.641.986.386 2.066.538 3.109.78.627.144 1.291.175 1.888.396 4.664 1.727 9.505 1.536 14.345 1.384 2.15-.069 4.302-.22 6.45-.177 5.52.108 10.91-.987 16.345-1.677.836-.107 1.645-.471 2.451-.759 1.713-.616 3.406-1.289 5.126-1.891 6.102-2.133 12.068-4.544 17.354-8.364.958-.69 1.932-1.38 2.796-2.182 4.89-4.54 9.52-9.294 13.388-14.791 2.17-3.089 4.25-6.201 5.982-9.547.298-.573.627-1.132.883-1.722 1.495-3.442 2.748-6.984 4.68-10.236.884-1.49 1.131-3.25 1.129-4.988-.002-2.092.43-4.051 1.507-5.86.273-.459.571-.951.667-1.463.789-4.268 3.596-7.495 5.693-11.084.483-.824 1.172-1.529 1.764-2.289.856-1.102 1.845-2.128 2.537-3.324 1.384-2.398 3.348-4.172 5.542-5.768 1.301-.947 2.665-1.85 3.809-2.968 2.409-2.358 5.181-4.172 8.051-5.884a71 71 0 0 0 4.329-2.81c.876-.613 1.791-1.257 2.455-2.076 1.574-1.944 3.413-3.506 5.494-4.902 1.714-1.148 2.814-2.972 3.39-4.984 1.584-5.532 1.736-10.983-.819-16.351-.821-1.724-1.335-3.621-1.788-5.491-1.591-6.548-7.096-10.53-13.784-10.048-3.756.271-7.091 1.758-10.352 3.366-2.784 1.374-5.368 3.156-8.035 4.766-.737.444-1.421.982-2.181 1.376-5.676 2.95-10.756 6.719-15.301 11.199-2.524 2.488-4.983 5.039-6.892 8.071-.563.893-1.403 1.617-2.144 2.393-.592.621-1.334 1.127-1.823 1.815-2.36 3.326-4.736 6.646-6.955 10.065-2.342 3.613-4.058 7.563-5.904 11.448-1.332 2.808-3.017 5.436-3.412 8.603-1.96 3.924-3.42 8.102-5.813 11.8-1.685 2.6-3.155 5.39-5.581 7.436-.651.548-1.332 1.094-2.084 1.477-2.959 1.504-5.951 2.943-8.931 4.407-.192.094-.404.162-.573.289-2.742 2.065-5.619 1.548-8.528.459-.202-.075-.392-.188-.598-.24-1.66-.42-3.421-.608-4.954-1.303-1.564-.708-3.039-1.573-4.748-1.937-1.735-.368-3.128-1.324-4.318-2.635-2.08-2.293-3.316-4.997-4.004-7.976-.114-.501-.162-1.079-.032-1.567.75-2.796 1.56-5.577 2.358-8.361.058-.203.154-.405.276-.577 2.356-3.328 4.553-6.787 7.133-9.932 1.895-2.31 4.24-4.267 6.481-6.274 1.467-1.31 2.715-2.746 3.626-4.484 1.492-2.848 3.277-5.516 4.468-8.557.801-2.045 2.397-3.796 3.736-5.607.826-1.12 1.782-2.16 2.773-3.142 1.637-1.622 2.753-3.548 3.695-5.624.484-1.064 1.154-2.046 1.761-3.054.443-.734 1.049-1.4 1.356-2.185 2.903-7.408 5.752-14.785 5.444-23.016-.153-4.097-.804-8.1-1.267-12.139-.39-3.402-1.977-6.325-4.106-8.978-2.755-3.435-5.412-6.959-8.486-10.114-1.865-1.914-3.982-3.584-6.282-5.628Z"/>
  <path fill="#000" d="M233.233 128.81c-.026.516.077 1.197-.108 1.792-.966 3.113.717 5.853 1.145 8.768 1.164 1.243 2.164 2.715 3.527 3.675 2.209 1.554 4.785 2.416 7.505 2.692.739.076 1.525.129 2.235-.042 2.181-.524 4.336-1.154 6.498-1.757.308-.087.591-.325.898-.347 2.761-.197 4.218-1.817 4.88-4.362.078-.3.274-.586.466-.839 2.739-3.631 1.838-7.536.814-11.421-.154-.58-.626-1.136-1.082-1.567-1.498-1.416-2.642-3.089-3.696-4.84-.982-1.632-2.356-2.752-4.208-3.287a42.07 42.07 0 0 1-3.362-1.106c-1.832-.7-3.548-.606-5.242.444a6.114 6.114 0 0 1-2.057.796c-3.976.733-6.425 3.181-7.779 6.849-.522 1.417-.857 2.892-.434 4.552Z"/>
</svg>
