<svg xmlns="http://www.w3.org/2000/svg" width="394" height="286" fill="none" viewBox="0 0 394 286">
  <path fill="#F0BD40" d="M153.523 151.262v.021c1.826 0 3.66.1 5.478-.022 3.063-.207 5.898-1.024 8.048-3.458.476-.538 1.143-1.032 1.818-1.252 2.77-.901 4.682-2.998 6.686-4.872 1.79-1.673 3.131-3.814 4.79-5.64 1.489-1.64 2.044-3.622 1.797-5.638-.392-3.216-1.333-6.299-3.923-8.59-.878-.777-1.762-1.606-2.42-2.566-1.058-1.542-2.413-2.688-3.892-3.794-1.658-1.238-3.348-1.794-5.405-1.325-.691.159-1.644.211-2.171-.144-1.857-1.252-3.888-1.74-6.057-1.913-.412-.032-.82-.256-1.205-.442-3.782-1.816-7.523-1.402-11.188.298-2.347 1.089-4.714 2.046-7.271 2.545-1.701.331-3.448.936-4.551 2.26-1.421 1.707-3.14 2.468-5.228 2.704-.212.023-.418.092-.625.155-3.975 1.218-6.725 5.196-6.513 9.316.188 3.645 1.188 6.958 3.613 9.774.555.646.94 1.435 1.423 2.144 2.386 3.503 5.12 6.656 9.048 8.494 1.149.536 2.42 1.084 3.649 1.116 2.581.07 5.125.232 7.657.752.828.17 1.714.069 2.574.076 1.289.008 2.578.001 3.868.001Zm215.18 128.42c-2.534.412-5.102.505-7.611 1.22-1.609.459-3.363.57-5.111.229-1.142-.223-2.358-.151-3.536-.097-2.036.089-4.08.186-6.098.437-1.266.156-2.562.443-3.723.948-2.255.979-4.569 1.289-6.939.873-1.461-.256-2.772-.074-4.06.547-2.54 1.221-4.974.755-7.45-.288-2.826-1.192-3.887-3.545-4.436-6.284a76.671 76.671 0 0 1-.755-4.429c-.267-1.911-.627-3.826-.671-5.744-.1-4.41-.076-8.822-.012-13.231.026-1.709.307-3.413.458-5.121.066-.748.141-1.5.138-2.25-.026-10.648-.041-21.298-.121-31.946-.015-1.819-.333-3.636-.499-5.455-.204-2.245-.385-4.49-.596-6.734-.293-3.103-.574-6.206-.914-9.303-.294-2.668-.723-5.32-.979-7.991-.24-2.501-.783-4.862-2.219-6.98-.537-.792-.901-1.698-1.35-2.566-.632-.254-1.299-.39-1.807-.748-2.445-1.727-5.197-1.787-8.025-1.685-2.904.107-5.76-.113-8.634-.794-2.696-.642-5.513-.836-8.292-1.035-1.018-.072-2.121.291-3.108.663-2.321.873-4.622 1.767-7.15 1.793-.831.01-1.386.494-1.903 1.066-2.903 3.206-5.257 6.665-6.853 10.797-1.439 3.727-1.967 7.393-1.886 11.304.131 6.452.092 12.908.139 19.36.036 4.844.648 9.641 1.151 14.449.469 4.491.877 8.989.714 13.515-.046 1.322.244 2.308 1.375 3.344 1.105 1.016 1.552 2.813 1.295 4.454-.851 5.408-1.774 10.807-2.711 16.203-.145.839-.444 1.667-.78 2.453-.293.683-.632 1.406-1.14 1.926-3.927 4.032-8.479 6.158-14.223 4.484-.505-.148-1.042-.179-1.594-.268-.462.369-.914.662-1.283 1.037-1.701 1.72-3.761 2.783-6.003 3.656-4.282 1.668-8.626 1.804-12.958.532-1.682-.495-3.084-.445-4.659.185-1.588.635-3.275 1.02-4.917 1.518-1.94.586-3.84.193-5.722-.271-1.226-.303-2.054-1.123-2.516-2.303-.513-1.309-.892-2.641-.872-4.07.042-2.903-.009-5.81.104-8.71.07-1.752-.093-3.413-.766-5.043-2.795-6.772-2.735-13.833-2.051-20.95.328-3.419 1.092-6.8.829-10.265-.04-.537.04-1.089-.058-1.611-.78-4.16-.594-8.366-.49-12.548.083-3.261-.536-6.42-.866-9.621-.222-2.135-.575-4.279-.539-6.413.076-4.554-.805-8.982-1.476-13.44-.173-1.156-.583-2.288-.975-3.4-.932-2.632-1.992-5.223-2.858-7.876-.831-2.548-2.327-4.307-4.976-5.009-.724-.19-1.464-.427-2.104-.802-1.412-.827-2.79-.489-4.314-.368-3.964.316-5.733 2.992-7.242 6.035-.567 1.141-.87 2.425-1.204 3.668-.762 2.821-1.711 5.546-3.496 7.913-.734.973-.975 2.088-1.11 3.304-.26 2.343-.614 4.684-1.118 6.987a41.428 41.428 0 0 1-1.742 5.848c-.661 1.737-1.136 3.45-1.006 5.324.262 3.814-.459 7.46-1.774 11.046-.621 1.695-.97 3.528-1.178 5.33-.451 3.914-1.632 7.565-3.64 10.929a15.89 15.89 0 0 0-1.954 5.072c-.428 2.1-1.085 4.153-1.673 6.22-.473 1.66-1.12 3.209-2.279 4.572-.673.789-.972 1.895-1.453 2.851-.769 1.533-1.441 3.127-2.351 4.571-1.476 2.343-3.524 4.027-6.264 4.775-.826.227-1.614.592-2.425.873-2.281.79-4.424.72-6.315-1.001-.221-.201-.534-.3-.92-.508-.594.448-1.237.834-1.757 1.344-1.8 1.766-3.975 2.816-6.272 3.816-4.059 1.764-8.364 1.828-12.615 2.317-.825.095-1.712-.109-2.541-.299-1.851-.423-3.623-.334-5.341.514-1.392.688-2.872.791-4.404.716-1.324-.064-2.575-.315-3.652-1.087a4.824 4.824 0 0 0-3.016-.929c-1.83.044-3.348-.759-4.719-1.827-2.473-1.928-5.176-3.465-7.936-4.926-3.285-1.74-5.999-4.188-8.237-7.119-.964-1.261-2.118-2.033-3.543-2.635a32.993 32.993 0 0 1-4.557-2.385c-2.046-1.271-3.639-2.991-4.651-5.227-.892-1.97-2.161-3.682-3.556-5.349-1.299-1.552-2.343-3.333-3.392-5.078-.83-1.379-1.367-2.943-2.259-4.274-4.569-6.818-6.633-14.637-8.98-22.336-1.032-3.387-1.84-6.842-2.68-10.284-.24-.982-.641-1.805-1.34-2.513-1.374-1.395-2.404-3.023-3.224-4.796-.922-1.995-2.41-3.565-4.018-4.995-2.49-2.212-5.139-4.249-7.584-6.505-2.352-2.173-5.152-3.472-8.051-4.637-1.096-.442-2.203-.87-3.332-1.214-4.003-1.221-6.293-4.09-7.264-7.956-1.044-4.158-2.004-8.373-1.528-12.734.047-.427.124-.87.064-1.288-.504-3.507.883-6.502 2.461-9.47 1.102-2.068 2.783-3.254 5.064-3.541 2.408-.301 4.739-.137 6.623 1.695 2.401 2.336 5.313 4.009 7.899 6.097 1.308 1.059 2.398 2.473 3.324 3.9 1.217 1.877 2.756 3.203 4.784 4.137 3.342 1.542 6.297 3.708 9.029 6.159 1.615 1.449 3.364 2.633 5.356 3.524 5.03 2.249 8.94 5.902 12.327 10.157 2.006 2.524 4.033 5.039 5.9 7.665 1.048 1.474 1.97 3.094 2.628 4.773 1.366 3.496 2.517 7.075 3.76 10.619.106.304.216.61.361.897 2.443 4.781 4.892 9.558 7.34 14.338.347.677.703 1.356 1.525 1.55 2.708.638 4.746 2.461 6.988 3.922 1.079.705 2.17 1.39 3.266 2.067 3.94 2.431 8.298 3.359 12.853 3.755 2.96.257 5.765-.068 8.543-1.096 1.037-.383 1.968-.843 2.734-1.625 1.672-1.705 3.555-3.126 5.692-4.186.911-.452 1.547-1.109 2.036-1.981 1.27-2.264 2.783-4.365 4.648-6.165 1.171-1.129 1.692-2.494 1.8-4.017.206-2.894.41-5.799.392-8.696-.01-1.899-.96-3.569-2.481-4.702-1.86-1.386-3.157-3.188-4.449-5.052-.914-1.318-1.963-2.556-3.064-3.726-1.475-1.564-3.072-3.012-4.586-4.54-.614-.62-1.22-1.134-2.128-1.345-2.001-.468-3.369-1.883-4.48-3.49a24.58 24.58 0 0 1-2.186-3.935c-.963-2.159-1.69-4.424-2.695-6.56-.771-1.64-1.625-3.312-2.784-4.682-2.188-2.588-3.767-5.47-5.063-8.565-.577-1.379-1.414-2.647-2.044-4.007-.582-1.258-1.205-2.534-1.524-3.872-.4-1.686-.857-3.314-1.696-4.842-.789-1.438-1.145-2.999-1.117-4.652.05-2.888-.379-5.803.687-8.626.254-.673.176-1.485.188-2.234.033-2.044.117-4.091.028-6.131-.152-3.487.528-6.811 1.536-10.127 1.04-3.425 3.206-5.844 6.341-7.326 2.808-1.33 5.676-2.536 8.736-3.283 3.036-.74 5.907-2.018 8.56-3.672 2.503-1.561 5.169-2.6 8.041-3.192a40.689 40.689 0 0 0 7.376-2.279c4.986-2.067 10.247-2.365 15.539-1.837 2.509.248 4.916.096 7.345-.486 2.614-.625 5.263-1.069 7.968-1.016 3.67.071 7.282-.349 10.883-1.069 2.76-.553 5.567-.628 8.264.435 1.333.525 2.705.68 4.113.628 3.166-.116 6.198.532 9.166 1.564.71.245 1.404.567 2.133.728 4.464.992 8.035 3.5 11.299 6.55.234.22.489.42.745.615.081.06.195.08.468.186.255-.018.687-.004 1.1-.086 1.368-.272 2.717-.721 4.097-.844 3.155-.279 5.992-1.15 8.7-2.94 2.555-1.688 5.587-2.153 8.688-1.477.944.208 1.906.341 2.863.49 1.827.28 3.631.242 5.421-.307 1.232-.378 2.483-.717 3.748-.951 2.35-.436 4.718-.51 6.999.333 1.344.496 2.703.606 4.111.636 7.198.154 14.394.348 21.592.534.536.013 1.089.006 1.605.134 3.495.872 7.053.62 10.595.628 3.442.01 6.885-.002 10.326-.077 3.347-.072 6.654.077 9.896 1.02.811.236 1.707.306 2.552.261 3.195-.172 6.184.632 9.088 1.827 2.095.86 4.242 1.498 6.448 2.02 1.552.367 3.078.954 4.526 1.635 1.944.913 3.802 2.009 5.696 3.029 2.362 1.272 4.76 2.485 7.074 3.84a49.908 49.908 0 0 1 4.803 3.227c2.144 1.616 4.197 3.352 6.305 5.014a19.59 19.59 0 0 1 4.332 4.736c1.408 2.162 2.97 4.227 4.302 6.432a40.127 40.127 0 0 1 2.74 5.459c1.676 4.075 3.258 8.187 4.797 12.315a50.597 50.597 0 0 1 1.681 5.528c.419 1.684.843 3.33 1.963 4.714 1.491 1.84 2.065 4.019 2.052 6.322-.021 3.528.777 6.804 2.543 9.861 1.433 2.479 2.061 5.176 2.014 8.035-.028 1.721-.052 3.442-.089 5.162-.053 2.476.007 4.91.868 7.31.888 2.478.972 5.102.047 7.589-1.211 3.25-.944 6.541-.694 9.868.104 1.388.182 2.795.09 4.18-.23 3.428-.604 6.845-.844 10.272-.204 2.924-.667 5.742-2.195 8.329-.405.691-.519 1.619-.56 2.448-.225 4.508-.376 9.019-.581 13.527-.039.854-.168 1.712-.33 2.553-.986 5.168-2.017 10.327-2.985 15.497a137.033 137.033 0 0 0-1.116 6.978c-.197 1.462-.852 2.634-1.849 3.67-.747.778-1.454 1.568-1.571 2.736-.184 1.835-1.463 2.82-2.995 3.491-1.078.471-2.229.78-3.348 1.161-.764-.196-1.493-.244-2.042.478Z"/>
  <path fill="#A87E23" d="M143.481 54.38c.5-1.862.926-3.75 1.516-5.585 1.356-4.22 3.323-8.156 5.846-11.801 1.172-1.695 2.081-3.47 2.621-5.48.584-2.175 1.439-4.274 2.129-6.422.662-2.054 1.476-4.002 2.754-5.786.8-1.116 1.242-2.488 1.836-3.75 1.298-2.762 3.221-4.761 6.329-5.477.923-.212 1.768-.132 2.483.296 1.65.985 3.212 2.065 4.062 3.963 1.459 3.254 2.518 6.625 3.264 10.1.247 1.154.507 2.325.564 3.498.14 2.862.984 5.487 2.407 7.94 2.295 3.952 3.635 8.238 4.559 12.684.261 1.25.685 2.467 1.12 4.003.657-.537 1.29-.817 1.529-1.293.719-1.44 1.315-2.942 1.903-4.442 1.776-4.537 4.876-8.052 8.544-11.136 1.15-.968 2.298-1.942 3.441-2.92 1.267-1.085 2.077-2.444 2.437-4.077.162-.733.412-1.453.522-2.193a8.791 8.791 0 0 1 2.589-5.087c1.256-1.23 2.133-2.59 2.684-4.28.787-2.413 2.564-3.885 5.027-4.565 1.113-.308 2.08-.18 3.065.426 1.911 1.179 3.303 2.68 3.611 5.01.212 1.594.697 3.177.708 4.768.026 3.756-.115 7.517-.268 11.273-.135 3.324-.406 6.643-.563 9.97-.272 5.685-.491 11.375-.755 17.06-.156 3.33-.316 6.658-.554 9.98-.102 1.387-.28 2.798-.659 4.13-.968 3.408-2.052 6.783-3.123 10.161-.518 1.635-1.58 2.619-3.272 3.243-2.16.796-4.293 1.31-6.592 1.232-1.61-.053-3.23.09-4.838.004-3.57-.193-7.075.383-10.603.728-1.815.177-3.636.357-5.456.385-7.2.106-14.403.134-21.604.23-2.697.038-5.367-.034-7.991-.762-2.096-.584-4.254-.594-6.406-.514-2.49.092-4.923-.202-7.356-.731a25.114 25.114 0 0 0-4.774-.563c-3.546-.08-7.096-.014-10.644-.018-1.297-.002-2.486.16-3.702.818-1.275.688-2.666 1.155-4.294 1.022-2.046-.167-3.17-1.104-3.716-2.934a36.744 36.744 0 0 1-.858-3.436c-.352-1.79-.686-3.588-.914-5.396-.132-1.053-.093-2.137-.046-3.202.164-3.667.929-7.18 2.225-10.648 1.372-3.667 1.584-7.627 1.056-11.464-.705-5.146-.715-10.288-.743-15.444-.018-3.442-.008-6.882 0-10.323.002-.752.048-1.504.064-2.257.07-3.374 2.484-4.743 5.155-5.184.677-.112 1.567.08 2.132.465 1.589 1.083 3.112 2.253 4.145 3.972 3.326 5.53 6.702 11.037 8.42 17.335 1.068 3.909 3.519 7.102 5.303 10.64.369.733 1.117.928 1.863 1.136.389.109.717.444 1.073.674.231.55.475.696.745.024Z"/>
  <path fill="#fff" d="M153.523 151.262c-1.29 0-2.579.006-3.868-.002-.86-.006-1.746.095-2.574-.076-2.532-.52-5.076-.681-7.657-.752-1.229-.032-2.5-.58-3.649-1.116-3.928-1.837-6.662-4.99-9.048-8.493-.483-.709-.868-1.499-1.423-2.144-2.425-2.816-3.425-6.129-3.613-9.775-.212-4.12 2.538-8.097 6.513-9.316.207-.062.413-.132.625-.154 2.088-.236 3.807-.998 5.228-2.704 1.103-1.324 2.85-1.93 4.551-2.26 2.557-.499 4.924-1.456 7.271-2.546 3.665-1.7 7.406-2.113 11.188-.297.385.185.793.409 1.205.441 2.169.174 4.2.662 6.057 1.914.527.354 1.48.302 2.171.144 2.057-.47 3.747.086 5.405 1.325 1.479 1.105 2.834 2.252 3.892 3.793.658.96 1.542 1.79 2.42 2.567 2.59 2.291 3.531 5.373 3.923 8.589.247 2.016-.308 3.999-1.797 5.639-1.659 1.825-3 3.967-4.79 5.64-2.004 1.873-3.916 3.971-6.686 4.872-.675.22-1.342.713-1.818 1.252-2.15 2.433-4.985 3.251-8.048 3.457-1.818.123-3.652.023-5.478.023v-.021Z"/>
  <path fill="#000" d="M118.947 84.17c.546-.183 1.035-.331 1.514-.508 3.626-1.35 7.246-2.651 11.185-2.853 1.92-.097 3.837-.49 5.727-.89 4.844-1.027 9.705-1.663 14.678-1.495 13.003.44 26.002-.137 39.002-.248.428-.004.856-.081 1.284-.088 2.47-.037 4.942-.113 7.412-.081 2.606.032 5.11.561 7.468 1.746 1.733.874 3.582 1.398 5.641 1.61.465-4.783.932-9.475 1.372-14.168.181-1.925.253-3.86.46-5.78.3-2.775.729-5.536 1.011-8.312.566-5.552 1.502-11.07 1.496-16.675-.002-.317.118-.634.141-.954.12-1.607.328-3.215.316-4.82-.025-3.34.145-6.652.669-9.956.235-1.475.207-2.995.234-4.495.005-.364-.242-.733-.403-1.184-.437.273-.781.381-.96.616-1.369 1.788-2.737 3.58-4.044 5.416-1.056 1.481-2.048 3.01-3.023 4.547-.397.626-.841 1.297-.977 2.002-.52 2.707-1.676 5.076-3.405 7.201-.334.408-.492.954-.783 1.404-.695 1.08-1.301 2.25-2.164 3.177-.927.994-1.472 2.113-1.741 3.378-.228 1.067-.532 2.046-1.227 2.925-.381.483-.476 1.18-.767 1.747-.384.748-.718 1.568-1.278 2.165a11.441 11.441 0 0 0-2.128 3.187c-.33.735-.939 1.566-1.635 1.875-2.739 1.221-5.489 2.419-8.66 2.03-1.991-.242-3.521-1.013-4.36-2.82-.812-1.749-1.584-3.535-2.16-5.373-1.824-5.827-2.916-11.877-5.42-17.504-.424-.952-.439-2.09-.62-3.145-.2-1.164-.197-2.398-.597-3.486-.936-2.552-1.414-5.173-1.676-7.855-.108-1.085-.426-2.06-1.499-2.895-.467.51-.993.894-1.245 1.413-.37.763-.43 1.682-.823 2.428-1.067 2.023-1.691 4.17-2.095 6.399a5.132 5.132 0 0 1-.277.925c-1.968 5.115-2.74 10.615-5.043 15.622-.032 1.8-1.112 2.93-2.516 3.689-.092.933-.216 1.678-.229 2.426-.052 2.945-.471 5.766-2.293 8.226-.372.503-.6 1.156-.743 1.776-.351 1.514-1.188 2.47-2.737 2.816-.623.14-1.192.512-1.814.648-2.23.496-4.292.18-5.856-1.635a70.366 70.366 0 0 1-3.604-4.538c-3.148-4.343-5.49-9.211-8.728-13.5a4.701 4.701 0 0 1-.626-1.123c-1.47-3.808-4.019-7.105-5.192-11.058-.296-.995-.794-1.937-1.878-2.764-.561 1.447-1.081 2.712-1.532 4-.173.497-.212 1.047-.261 1.576-.161 1.711-.367 3.422-.431 5.137-.152 4.076-.416 8.154.25 12.222.186 1.15.32 2.396.078 3.512-.662 3.056-1.089 6.12-1.122 9.248a9.709 9.709 0 0 1-.308 2.235c-1.448 5.794-.955 11.761-1.538 17.632-.101 1.025-.197 2.138.48 3.246Zm41.847 163.475c.181-1.489.888-3.12 2.156-4.54.469-.525.891-1.3.916-1.977.075-1.959.965-3.519 2.123-4.949 1.456-1.799 1.882-3.722 1.441-6.011-.515-2.665-.068-5.172 2.215-7.008 1.46-1.173 1.55-2.627 1.246-4.355-.276-1.569-.388-3.222-.217-4.802.241-2.235.748-4.447 1.249-6.644.594-2.606 1.443-5.172.636-7.891-.086-.297-.032-.643-.013-.964.213-3.753.405-7.508.664-11.257.103-1.498.311-2.992.553-4.474.172-1.056.387-2.122.747-3.125 1.477-4.107 3.893-7.633 6.864-10.799 1.724-1.836 3.735-3.154 6.181-3.924 2.296-.722 4.599-.91 6.979-.997 5.535-.201 9.375 2.769 12.527 6.739 1.581 1.989 2.61 4.436 3.765 6.738 1.072 2.138 1.471 4.476 1.645 6.855.103 1.391.274 2.777.415 4.164.372 3.648.716 7.325-.116 10.923-1.609 6.966-1.023 13.924.081 20.829 1.156 7.225 2.595 14.395 1.624 21.765-.028.211-.002.43-.016.646-.133 2.209.326 7.114 1.055 9.316 1.421 4.293 1.323 8.701.989 13.093-.216 2.837.438 5.525.65 8.3 1.854.929 3.756 1.365 5.677 1.265 2.779-.144 5.539-.642 8.319-.836 3.206-.224 6.42-.552 9.62.263 3.266.833 6.605 1.047 9.906.283 2.611-.603 5.163-1.458 7.74-2.204 1.122-.326 1.92-1.071 2.183-2.175.373-1.557.763-3.151.803-4.739.065-2.497.234-4.93 1.404-7.038-1.747-4.994-1.719-3.303-1.938-9.876-.013-.431-.078-.859-.09-1.288-.195-7.098-.2-14.192.528-21.268.252-2.46.342-4.875-.363-7.344-.553-1.934-.652-4.03-.728-6.062-.137-3.653.02-7.318-.181-10.968-.208-3.786.558-7.474.806-11.212.074-1.097.302-2.07 1.08-2.946.619-.696 1.124-1.555 1.474-2.423 2.073-5.156 5.71-9.047 9.945-12.464a5.239 5.239 0 0 1 1.404-.783c2.613-.99 5.219-1.928 8.113-1.81 1.699.068 3.444-.096 5.118-.422 3.324-.646 6.593-.676 9.908.052 2.193.482 4.324 1.287 6.64 1.224.821-.022 1.689.32 2.474.646 1.98.82 3.878 1.865 5.898 2.564 2.986 1.03 5.032 3.001 6.874 5.506 2.028 2.759 2.898 5.73 2.79 9.046-.124 3.774.266 7.505.649 11.249.272 2.664.213 5.328-.305 8.015-.59 3.041-.776 6.16-1.13 9.248-.022.208.007.432.056.638.596 2.5.851 5.063 1.744 7.518 1.214 3.34 1.891 6.814 1.867 10.409-.037 5.912-.003 11.825-.013 17.737a43.28 43.28 0 0 1-.12 3.222c-.151 1.924-.308 3.849-.535 5.764-.249 2.117.22 4.061 1.271 5.877 1.637 2.831 3.662 5.008 7.364 4.709 1.598-.129 3.222.047 4.834.106 2.378.085 4.703-.12 7.019-.759 3.696-1.021 7.553-1.016 11.189-.173 4.368 1.013 8.751 1.162 13.128 1.072 3.174-.067 6.304-.839 8.91-3.144 2.172-1.922 3.494-3.923 3.114-6.955-.182-1.456.242-2.979.243-4.472.001-2.363-.2-4.727-.175-7.088.04-3.44.247-6.877.31-10.317.1-5.376.166-10.746-.347-16.118a71.173 71.173 0 0 1-.029-13.21c.278-3.102.473-6.22.52-9.334.077-5.157-.007-10.317.016-15.476.004-.961.188-1.922.294-2.882.362-3.208.488-6.419.236-9.643-.15-1.925-.388-3.86-.338-5.784.132-5.081-.532-10.085-1.315-15.076-.351-2.232-.829-4.441-.715-6.716.058-1.112-.284-2.068-.798-3.057-.79-1.514-1.514-3.09-2.023-4.715-.548-1.749-1.104-3.475-1.992-5.085-.308-.563-.679-1.154-.763-1.767-.324-2.399-1.586-4.424-2.442-6.612-.564-1.444-1.392-2.652-2.46-3.735-.755-.765-1.475-1.566-2.242-2.318a4961.277 4961.277 0 0 0-15.22-14.874c-.53-.514-1.121-1.053-1.788-1.328-2.186-.897-4.372-1.865-6.649-2.449a21.552 21.552 0 0 1-5.636-2.302c-2.919-1.711-6.075-2.703-9.417-3.143-3.002-.395-5.888-1.144-8.632-2.488-2.904-1.42-5.89-2.655-9.255-2.306-.315.032-.641-.047-.963-.077-5.692-.537-11.376-.673-17.044.275-.844.141-1.716.148-2.574.166-3.655.077-7.311.158-10.967.191-7.848.068-15.699.03-23.545.196-3.646.078-7.312.33-10.915.87a64.566 64.566 0 0 1-9.953.718c-2.152-.01-4.303.007-6.454.044-.5.01-1.092-.127-1.556.713.299 1.167 1.008 2.363 1.575 3.617 1.461 3.233 2.896 6.491 3.641 9.967.631 2.939.984 5.936 1.444 8.911.37 2.385.358 4.857-.742 6.955-1.184 2.262-1.704 4.641-2.044 7.052-.435 3.072-1.603 5.68-3.378 8.214-2.677 3.826-6.354 6.335-10.244 8.635-1.66.981-3.404 1.832-5.154 2.648-1.847.863-3.708 1.727-5.632 2.387-2.124.729-4.687.068-5.592-1.356-1.092-1.715-1.259-3.672-.842-5.596.374-1.716 1.786-2.554 3.314-3.242 2.642-1.188 5.312-2.348 7.853-3.732 3.32-1.809 6.379-3.972 8.345-7.372.494-.853.876-1.673 1.006-2.669.286-2.223.66-4.435 1.06-6.641.112-.619.297-1.334.7-1.774 1.366-1.488 1.014-3.18.806-4.89-.59-4.866-2.297-9.356-4.422-13.738a15.704 15.704 0 0 0-4.888-5.89c-3.863-2.852-8.406-4.235-12.838-5.846-.493-.178-1.06-.197-1.593-.213-1.936-.053-3.872-.139-5.805-.093-6.983.165-13.963.476-20.946.55-7.093.073-14.193.04-21.284-.163-3.904-.112-7.736.404-11.517 1.062-3.285.57-6.567 1.062-9.868 1.508-3.427.463-6.64 1.632-9.423 3.855-1.33 1.063-2.8 2.047-4.357 2.708-2.459 1.044-4.315 2.781-6.137 4.604-.606.605-1.124 1.3-1.671 1.964-2.252 2.732-4.543 5.433-6.736 8.213-1.501 1.904-2.339 4.072-2.233 6.576.04.947-.22 1.907-.356 2.859-.136.956-.307 1.908-.43 2.866-.822 6.468 1.715 12.236 3.814 18.087.208.584.748 1.043 1.086 1.587.622 1.002 1.364 1.966 1.778 3.052a15.016 15.016 0 0 0 3.476 5.358c.757.76 1.52 1.54 2.138 2.412 1.738 2.448 3.72 4.798 5 7.475 1.159 2.424 2.443 4.769 3.666 7.153.85 1.659 2.073 2.958 3.388 4.255 3.045 3.007 6.424 5.684 8.84 9.327 1 1.506 2.28 2.824 3.026 4.521.252.576.654 1.163 1.144 1.539 1.859 1.425 2.4 3.441 2.895 5.584.507 2.186 1.021 4.448 2.019 6.43 1.444 2.868 1.805 5.668.832 8.691-.196.612-.282 1.257-.444 1.881-.839 3.234-1.806 6.415-3.798 9.176-.876 1.215-1.664 2.5-2.605 3.662-.447.552-1.132.93-1.753 1.318-.812.507-1.664.951-2.504 1.412-.654.362-1.287.783-1.979 1.054-2.5.972-5.013 1.912-7.537 2.824-.904.326-1.848.548-2.778.8-1.344.366-2.733.61-4.029 1.104-1.54.586-3.1.854-4.727.869-1.074.011-2.152-.013-3.222.049-2.534.148-4.955-.014-6.836-2.04-.14-.152-.352-.242-.542-.34-2.953-1.526-5.858-3.153-8.873-4.542-3.547-1.632-6.132-4.215-8.283-7.391-1.313-1.943-2.497-4.001-4.496-5.424-1.089-.773-1.493-2.088-1.732-3.371-.517-2.769-1.808-5.249-2.984-7.749-.734-1.561-1.622-3.008-1.757-4.789-.047-.622-.287-1.258-.559-1.831-1.472-3.101-3.072-6.147-4.457-9.285-2.245-5.084-6.16-9.046-9.012-13.715a1.922 1.922 0 0 0-.44-.469c-1.944-1.578-3.265-3.668-4.812-5.594-4.816-5.997-10.365-11.2-17.323-14.717-1.05-.531-2.025-1.215-3.033-1.831-2.381-1.454-4.69-3.056-7.167-4.324-1.894-.969-3.965-1.664-6.029-2.213-1.888-.504-2.905.065-3.459 1.951-.997 3.398-2.042 6.764-3.274 10.093-.927 2.499-.278 4.847 2.378 6.313 1.108.612 2.208 1.45 2.963 2.45 1.737 2.297 4.035 3.808 6.415 5.301a115.275 115.275 0 0 1 7.453 5.081c2.241 1.662 4.335 3.52 6.516 5.264 2.448 1.959 4.772 4.011 6.261 6.856.391.748 1.043 1.358 1.554 2.047 1.15 1.548 2.302 3.095 3.422 4.665.684.96 1.207 2.055 1.984 2.926 1.331 1.49 2.122 3.206 2.68 5.088.395 1.336.73 2.73 1.38 3.944a24.488 24.488 0 0 1 2.896 10.152c.078 1.212.407 2.312 1.096 3.32 1.102 1.612 1.844 3.384 2.4 5.257.3 1.023.771 2.001 1.222 2.975 2.281 4.912 5.518 9.198 8.81 13.453 2.244 2.903 4.924 5.391 7.454 8.027 3.04 3.168 6.83 5.18 10.542 7.333.638.371 1.411.507 2.12.756 3.14 1.1 6.351 2.039 9.398 3.357 2.008.87 3.97 1.584 6.162 1.639.642.015 1.284.128 1.918.249 3.285.627 6.596.92 9.942.871 1.827-.025 3.664-.075 5.483.057 4.751.348 9.412.204 14.021-1.277 3.379-1.084 6.74-2.101 9.566-4.361.334-.267.7-.523 1.09-.686 2.016-.841 3.704-2.113 5.216-3.68.811-.841 1.852-1.462 2.663-2.304 1.408-1.461 2.719-3.017 4.508-5.024ZM108.403 90.031c0-.692.042-1.444-.005-2.19-.445-7 .149-13.974.551-20.953.062-1.072.08-2.17.332-3.204.722-2.945.598-6.002 1.117-8.93.859-4.84.104-9.64.36-14.446.217-4.078.344-8.164.64-12.236.1-1.372.408-2.797.961-4.045.638-1.442.838-2.867.799-4.387-.019-.752.049-1.506.012-2.259-.141-2.954 1.445-4.944 3.833-6.225 1.479-.795 3.204-1.321 4.875-1.536 3.735-.478 6.76 1.264 8.387 4.675 1.753 3.677 3.377 7.414 5.081 11.116.357.776.897 1.473 1.217 2.262 1.666 4.098 4.527 7.511 6.506 11.426.825 1.633 1.778 3.17 3.234 4.495.458-.838.691-1.795 1.302-2.276 1.701-1.343 2.081-3.13 2.238-5.102.051-.63.247-1.279.52-1.852 1.631-3.425 2.318-7.142 3.403-10.737 1.393-4.616 2.683-9.265 4.465-13.756.479-1.204 5.042-7.063 6.14-7.775 2.267-1.468 4.774-2.03 7.403-1.482a6.507 6.507 0 0 1 4.129 2.883c1.807 2.907 3.856 5.783 4.382 9.267.545 3.616 1.536 7.123 2.238 10.69.438 2.23.859 4.383 1.828 6.453.494 1.053.623 2.273.943 3.41.929 3.302 1.873 6.6 2.883 10.152.5-.414 1.09-.657 1.206-1.04.65-2.15 2.174-3.944 2.443-6.26.079-.68.616-1.383 1.109-1.922 1.466-1.597 2.511-3.456 3.686-5.255 1.372-2.1 2.545-4.196 3.021-6.675.119-.616.421-1.236.779-1.76 1.752-2.567 3.549-5.103 5.337-7.646.495-.703.997-1.4 1.527-2.076.856-1.095 1.738-2.17 2.606-3.255.664-.83 1.431-1.6 1.966-2.505 1.574-2.676 4.008-3.803 6.958-3.97 4.6-.26 8.55 2.743 9.716 7.207.498 1.907.574 3.819.452 5.759-.253 4.07-.072 8.176-.958 12.201-.16.723-.071 1.502-.08 2.255-.042 3.22.202 6.454-.559 9.634-.075.31-.065.645-.061.966.045 4.316-.767 8.554-1.122 12.826-.498 5.992-1.837 11.891-1.786 17.948.021 2.667-.586 5.337-.867 8.008-.112 1.067-.14 2.146-.157 3.22-.004.295.168.594.282.968 2.59-.06 5.139-.126 7.69-.178 1.29-.027 2.582-.056 3.873-.037 3.445.051 6.86-.103 10.269-.747 4.451-.843 8.984-.81 13.498-.878 4.622-.069 9.246-.092 13.868-.126 3.658-.03 7.316-.034 10.972-.072 3.868-.04 7.716-.197 11.578-.623 5.02-.55 10.091-.488 15.142-.015 1.494.142 3.001.183 4.504.202 1.745.022 3.389.319 4.981 1.113a66.804 66.804 0 0 0 5.909 2.578c1.194.457 2.466.78 3.732.96 4.95.697 9.678 2.006 13.99 4.62.545.33 1.15.58 1.754.794 2.631.936 5.25 1.913 7.912 2.747 2.54.796 4.612 2.276 6.478 4.09 5.006 4.87 10 9.755 14.984 14.648 1.152 1.13 2.264 2.3 3.364 3.479 1.332 1.425 2.436 2.98 3.025 4.891.313 1.016.935 1.932 1.348 2.924.536 1.284 1.012 2.592 1.497 3.897.376 1.001.71 2.019 1.09 3.019.268.702.686 1.36.864 2.08.67 2.734 1.756 5.27 3.154 7.722 1.075 1.883 1.414 4.043 1.406 6.23-.01 2.152.224 4.266.549 6.405.857 5.627 1.721 11.265 1.485 17.004-.069 1.696.244 3.416.471 5.112.2 1.495.419 2.957.132 4.484-.219 1.152-.128 2.357-.245 3.532-.438 4.385-.554 8.783-.528 13.187.012 2.037-.128 4.081-.027 6.113.125 2.484-.152 4.927-.337 7.392a132.435 132.435 0 0 0-.026 19.323c.36 5.024.05 10.094.126 15.144.081 5.366-.712 10.74.108 16.105.129.839.145 1.753-.052 2.568-.338 1.396-.154 2.741-.12 4.135.057 2.353-.535 4.702-1.634 6.797-1.329 2.536-5.28 6.664-7.693 7.983-1.387.757-2.996 1.144-4.541 1.561-1.444.389-2.971.492-4.403.915-2.196.65-4.427.933-6.688.8-4.284-.251-8.564-.303-12.819-1.235-3.01-.661-6.193-.708-9.253.315-.809.27-1.679.529-2.519.524-4.834-.035-9.67-.103-14.502-.26-2-.067-3.748-.848-5.052-2.482-.398-.497-.92-.902-1.418-1.31-4.722-3.896-6.554-9.207-7.033-15.028-.228-2.764.169-5.58.287-8.372.068-1.606.193-3.211.205-4.819.035-5.163-.02-10.327.065-15.488.038-2.187-.324-4.244-1.004-6.319-1.41-4.3-2.206-8.746-2.754-13.232-.091-.738-.164-1.568.074-2.241 1.2-3.393.364-7.071 1.563-10.477.333-.952.064-2.131.003-3.202-.208-3.648-.547-7.289-.64-10.938-.066-2.56-1.252-4.22-3.41-5.356-2.774-1.462-5.609-2.687-8.82-2.864-1.05-.059-2.085-.49-3.121-.771-2.956-.811-5.891-.94-8.923-.251-1.864.423-3.836.506-5.757.494-1.633-.012-2.939.422-4.015 1.632-.998 1.122-2.118 2.146-3.021 3.34-1.517 2.004-2.461 4.206-2.355 6.849.066 1.697-.266 3.42-.517 5.116-.124.841-.213 1.931-.757 2.421-1.558 1.403-1.159 3.126-1.184 4.807-.022 1.399.022 2.797-.016 4.196-.087 3.023.084 6.003.969 8.931.928 3.068.429 6.192.121 9.292-.629 6.326-.672 12.665-.498 19.01.026.967.168 1.934.16 2.898-.011 1.112.3 2.089.806 3.072.636 1.236 1.219 2.516 1.647 3.834.844 2.592.557 5.095-1.079 7.326-.614.836-.738 1.712-.861 2.693-.335 2.66-.625 5.348-1.285 7.936-.866 3.403-2.942 5.908-6.375 7.152-4.136 1.499-8.205 3.217-12.568 3.984-3.848.676-7.724.728-11.539-.14-2.454-.559-4.908-.628-7.374-.484-2.676.156-5.364.349-8.008.771-3.851.61-7.487-.299-11.127-1.247-2.179-.569-3.751-1.907-4.791-3.988-1.221-2.449-2.006-4.929-2.056-7.703-.046-2.569-.69-5.11-.382-7.714.15-1.278.104-2.576.192-3.862.166-2.413-.283-4.698-1.252-6.906-1.602-3.646-1.986-7.35-1.191-11.332.996-4.994.788-10.075-.281-15.064-1.404-6.547-2.018-13.175-2.094-19.842-.034-2.993.328-6.017.814-8.977.493-3.005.693-5.973.312-8.988-.055-.425-.15-.857-.136-1.283.125-3.836-1.447-7.078-3.484-10.176-2.392-3.634-4.523-3.582-8.379-2.97-.385.061-.809.369-1.064.685-1.48 1.831-3.103 3.544-4.237 5.655-1.474 2.733-1.719 5.724-2.04 8.704-.184 1.7-.228 3.414-.35 5.361.311.292.834.668 1.208 1.156 1.124 1.465 1.871 3.02 1.388 4.991-.362 1.477-.681 2.892-1.982 3.896-.391.301-.675.854-.814 1.348-.493 1.756-.968 3.52-1.325 5.306a11.245 11.245 0 0 0 .195 5.386c.79 2.824.432 5.75-.488 8.498-.387 1.156-1.474 2.078-2.32 3.211.206 2.185-.302 4.34-1.051 6.505-.803 2.322-1.292 4.704-3.013 6.662-.716.813-.912 2.153-1.151 3.296-.225 1.082-.504 2.122-1.28 2.901-1.051 1.053-1.524 2.387-1.712 3.745-.213 1.532-.908 2.619-2.143 3.414-1.556 1-2.937 2.125-3.766 3.86-.26.544-.834.993-1.355 1.352-1.6 1.098-3.109 2.248-4.273 3.864-.454.632-1.379 1.006-2.163 1.298-1.637.611-3.117 1.451-4.423 2.598-.986.866-2.129 1.409-3.345 1.886-2.096.822-4.123 1.82-6.219 2.642-.986.385-2.066.537-3.109.78-.627.144-1.291.174-1.888.396-4.664 1.726-9.505 1.536-14.345 1.384-2.15-.07-4.302-.22-6.45-.178-5.52.108-10.91-.986-16.345-1.677-.836-.107-1.645-.471-2.45-.759-1.714-.616-3.407-1.289-5.127-1.89-6.102-2.134-12.068-4.544-17.354-8.364-.958-.691-1.932-1.38-2.796-2.183-4.89-4.54-9.52-9.293-13.388-14.791-2.17-3.089-4.25-6.201-5.982-9.546-.298-.574-.627-1.132-.883-1.723-1.495-3.441-2.748-6.984-4.68-10.236-.884-1.489-1.13-3.249-1.13-4.988.003-2.092-.429-4.051-1.506-5.86-.273-.459-.57-.951-.667-1.463-.789-4.268-3.596-7.494-5.693-11.084-.483-.824-1.172-1.529-1.764-2.289-.856-1.101-1.845-2.128-2.537-3.324-1.384-2.397-3.348-4.172-5.542-5.768-1.3-.947-2.665-1.849-3.809-2.968-2.41-2.357-5.181-4.172-8.05-5.884a70.991 70.991 0 0 1-4.33-2.809c-.876-.614-1.79-1.258-2.455-2.076-1.574-1.944-3.413-3.507-5.494-4.903-1.714-1.148-2.814-2.972-3.39-4.984-1.584-5.532-1.736-10.983.82-16.351.82-1.724 1.334-3.621 1.787-5.49 1.59-6.548 7.096-10.531 13.784-10.048 3.756.27 7.09 1.757 10.352 3.365 2.784 1.375 5.368 3.156 8.035 4.767.737.444 1.421.981 2.181 1.376 5.676 2.949 10.756 6.718 15.301 11.198 2.524 2.488 4.983 5.039 6.892 8.071.563.893 1.403 1.617 2.144 2.393.592.622 1.334 1.127 1.823 1.815 2.36 3.327 4.736 6.647 6.955 10.065 2.342 3.614 4.058 7.563 5.904 11.448 1.332 2.808 3.017 5.436 3.412 8.603 1.96 3.924 3.42 8.103 5.813 11.8 1.685 2.6 3.155 5.391 5.581 7.436.651.548 1.332 1.095 2.084 1.477 2.96 1.504 5.951 2.943 8.931 4.407.192.095.404.163.573.289 2.742 2.066 5.619 1.548 8.528.459.202-.075.392-.188.598-.24 1.66-.42 3.421-.608 4.954-1.303 1.564-.708 3.039-1.573 4.748-1.937 1.735-.368 3.128-1.324 4.318-2.635 2.08-2.293 3.316-4.997 4.004-7.976.114-.501.162-1.078.032-1.566-.75-2.796-1.56-5.578-2.358-8.362a1.943 1.943 0 0 0-.276-.577c-2.356-3.328-4.553-6.787-7.133-9.932-1.895-2.309-4.24-4.267-6.481-6.273-1.467-1.311-2.715-2.747-3.626-4.484-1.492-2.848-3.277-5.516-4.468-8.558-.801-2.045-2.397-3.796-3.736-5.606-.826-1.12-1.782-2.16-2.773-3.143-1.637-1.621-2.753-3.548-3.695-5.624-.484-1.064-1.154-2.045-1.76-3.053-.444-.735-1.05-1.4-1.357-2.186-2.903-7.408-5.752-14.785-5.444-23.016.153-4.097.804-8.1 1.267-12.138.39-3.403 1.977-6.326 4.106-8.979 2.755-3.434 5.412-6.959 8.486-10.113 1.865-1.915 3.982-3.584 6.282-5.628Z"/>
  <path fill="#000" d="M160.099 129.218c.026.516-.077 1.197.108 1.792.966 3.113-.717 5.853-1.145 8.768-1.164 1.242-2.164 2.714-3.527 3.674-2.209 1.555-4.785 2.416-7.505 2.692-.739.076-1.525.13-2.235-.041-2.181-.524-4.336-1.155-6.498-1.757-.308-.087-.591-.326-.898-.347-2.761-.197-4.218-1.817-4.88-4.363-.078-.3-.274-.585-.466-.838-2.739-3.631-1.838-7.536-.814-11.422.154-.58.626-1.136 1.082-1.566 1.498-1.416 2.642-3.09 3.696-4.84.982-1.632 2.356-2.752 4.208-3.287a42.484 42.484 0 0 0 3.362-1.107c1.832-.7 3.548-.605 5.242.444a6.072 6.072 0 0 0 2.057.796c3.976.734 6.425 3.182 7.779 6.85.522 1.417.857 2.892.434 4.552Z"/>
</svg>
