<svg xmlns="http://www.w3.org/2000/svg" width="473" height="729" fill="none" viewBox="0 0 473 729">
  <path fill="#A97F24" d="M278.578 631.819c-4.992-1.61-10.197-1.73-15.355-2.14-1.422-.114-2.886.14-4.318.328a44.383 44.383 0 0 0-4.283.777c-2.689.625-5.392.687-7.984-.217-4.217-1.471-8.56-1.359-12.913-1.414-10.403-.128-8.027 1.014-19.263-3.646-2.345-.972-4.745-1.403-7.259-1.456-5.204-.112-10.37.084-15.402 1.589-.778.112-1.563.192-2.335.345-1.364.272-2.72.587-4.08.886-.796-.076-1.591-.203-2.387-.212-1.034-.012-1.973.285-2.612 1.188-1.649.121-3.401-.067-4.929.429-3.239 1.049-6.528 1.004-9.832 1.031-3.729.03-7.457.004-11.187-.024-2.277-.019-4.554-.108-6.833-.126-1.459-.012-2.651-1.265-4.187-.864-5.202-.361-10.336-1.392-15.564-1.564-3.174-.105-6.114-1.254-8.938-2.652-1.158-.572-1.915-1.524-2.436-2.733-.947-2.196-.96-4.485-.743-6.773.236-2.49.601-4.97 1.027-7.435a10.04 10.04 0 0 1 1.004-2.936c2.928-5.564 5.176-11.381 6.828-17.444.777-2.855 2.012-5.432 4.458-7.355.934-.733 1.603-1.918 2.128-3.022.804-1.691 1.356-3.498 2.056-5.239 1.408-3.5 3.018-6.891 5.736-9.607 1.211-1.21 1.988-2.668 2.588-4.24 3.2-8.378 6.122-16.852 8.53-25.497.056-.2.134-.4.153-.605.447-4.976.909-9.951 1.312-14.93.087-1.073-.355-2.033-1.116-2.825-2.327-2.42-4.98-4.44-7.764-6.288-.495-.328-1.165-.547-1.756-.548-1.871-.005-3.817-.188-5.596.257-3.072.767-6.156 1.098-9.289 1.191-1.603.048-2.768.801-3.627 2.097-.576.868-1.116 1.76-1.692 2.63-3.351 5.065-3.603 5.298-9.051 8.438-.364.648-.825 1.35-1.173 2.104-1.421 3.094-3.528 5.667-6.072 7.874-2.532 2.196-4.801 4.629-7.06 7.096a62.725 62.725 0 0 1-5.857 5.636c-2.787 2.35-4.97 5.064-5.991 8.59-.955 3.295-2.67 6.1-5.15 8.446-1.26 1.189-1.989 2.665-2.38 4.322-.191.811-.273 1.65-.473 2.458-.644 2.605-2.112 4.501-4.724 5.385-3.12 1.539-5.533.567-7.468-2.107-.121-.166-.265-.316-.378-.486-2.142-3.224-5.259-5.076-8.799-6.41-2.108-.794-4.197-1.68-6.199-2.714-2.177-1.124-4.244-2.467-6.358-3.715-.567-.577-1.052-1.291-1.722-1.704-1.057-.651-2.214-1.155-3.37-1.623-2.22-.898-3.059-2.664-3.295-4.889-.207-1.947-.079-3.745 1.592-5.111 1.187-.968 1.756-2.288 2.01-3.778.678-3.978 2.48-7.495 4.505-10.924 2.968-5.027 6.194-9.907 8.628-15.238.606-1.326 1.358-2.59 1.916-3.937 4.43-10.723 11.02-20.084 18.27-29.028 1.576-1.945 3.131-3.915 4.824-5.756a39.322 39.322 0 0 0 4.86-6.503c1.503-2.518 3.343-4.77 5.384-6.885 1.443-1.493 2.74-3.141 3.983-4.808 2.556-3.425 5.645-6.064 9.729-7.565 1.938-.711 3.736-1.826 5.546-2.851 2.549-1.443 5.153-2.665 8.017-3.425 2.195-.584 4.3-1.563 6.376-2.519 2.269-1.047 4.452-2.283 6.685-3.409 2.86-1.443 5.942-2.198 9.09-1.782 7.974 1.054 15.817-.618 23.724-.877.208-.007.424-.011.621-.067 5.323-1.502 10.732-1.078 16.165-.934 6.462.173 12.934-.046 19.402-.102 1.474-.013 2.858-.298 4.208-1 1.468-.762 3.062-1.284 4.598-1.909l7.914-1.788c3.906.213 7.804.437 11.628 1.407 2.422.613 4.912.681 7.338-.036 2.419-.715 4.876-.672 7.352-.647 2.054.02 4.108-.069 6.162-.111 1.034.127 2.073.23 3.102.388 3.208.498 5.9 1.882 7.816 4.594.11.154.348.217.526.322 4.997-.068 9.994-.097 14.992-.224 1.444-.037 2.894-.276 4.316-.557 4.089-.809 8.166-1.637 12.362-1.675a20.447 20.447 0 0 0 6.142-1.006c7.089-2.283 14.374-2.11 21.68-1.503 5.913 1.724 11.992 1.365 18.009 1.176 4.864-.152 9.481 1.179 14.228 1.671 1.649.172 3.187.944 4.541 1.972.832.629 1.655 1.266 2.498 1.876 1.905 1.378 4.06 2.314 6.388 2.224 2.742-.107 5.376.684 8.076.65 2.428-.028 4.428.88 6.36 2.218 4.505 3.12 8.304 6.97 11.592 11.305 2.012 2.651 3.797 5.477 5.596 8.283 2.364 3.681 4.47 7.537 6.989 11.106 5.105 7.232 8.697 15.146 11.32 23.551.807 2.583 1.68 5.147 2.547 7.711 1.001 2.962 2.024 5.904 3.962 8.445.612.803.971 1.831 1.302 2.805.805 2.364 1.524 4.758 2.281 7.138.504 1.586.997 3.176 1.535 4.75.277.811 1.193 1.367 1.941 1.204.609-.133 1.197-.356 1.797-.525 4.115-1.163 7.935 3.331 6.776 7.171-.546 1.813-1.145 3.566-2.469 4.986a198.287 198.287 0 0 0-3.795 4.148c-.674.764-1.269 1.595-1.901 2.396-.464.38-1.123.667-1.356 1.155-.772 1.609-2.076 2.5-3.655 3.107-.764.294-1.529.592-2.312.832-2.749.84-5.37 1.869-7.793 3.528-1.66 1.136-3.708 1.706-5.577 2.538-1.492.664-3.147 1.118-4.422 2.074-1.354 1.017-2.86 1.553-4.333 2.245-.327.153-.516.599-.769.909-1.004.252-2.023.456-3.01.768-2.642.836-5.034.419-6.789-1.75-.88-1.088-1.836-1.619-3.123-1.763-2.566-.285-4.169-1.812-5.073-4.093-.764-1.931-1.519-3.894-1.993-5.908-1.05-4.44-3.354-8.04-6.786-10.976-.793-.678-1.533-1.42-2.36-2.052-4.206-3.215-7.448-7.274-10.229-11.72-2.217-3.547-4.751-6.854-7.419-10.064-1.065-1.284-2.205-2.52-3.138-3.895-3.435-5.059-8.07-8.975-12.431-13.147-.719-.686-1.761-1.064-2.704-1.468-.312-.133-.869-.025-1.163.184-1.904 1.363-3.144 3.294-4.336 5.256a1.518 1.518 0 0 0-.186.595c-.442 3.735-.894 7.475.856 11.037.828 1.683 1.721 3.335 2.528 5.03 2.253 4.745 3.564 9.805 4.484 14.932 1.028 5.738 1.794 11.532 2.485 17.325.913 7.656 1.644 15.335 2.443 23.005.474 4.56.918 9.126 1.394 13.687.736 7.055 1.946 14.025 3.404 20.973 1.115 5.315 1.5 10.73-.29 16.067-.46 1.372-.495 2.88-.876 4.281-.339 1.244-1.171 2.095-2.384 2.712-2.763 1.404-5.587 1.648-8.49.712-1.194-.385-2.321-.932-3.62-.681-3.918-.053-7.837-.125-11.756-.147-.818-.005-1.697.01-2.448.287-2.792 1.035-5.689.888-8.572.893-5.574.012-11.15-.112-16.722 0-3.126.064-6.143-.342-9.135-1.142Z"/>
  <path fill="#F0BE41" d="M226.903 391.246c2.784.246 5.26.182 7.621-.908.555-.256 1.197-.369 1.812-.448 4.6-.584 8.667-2.886 13.088-4.048.389-.101.747-.369 1.088-.604 2.048-1.416 4.009-2.973 6.145-4.24 2.855-1.693 4.912-4.485 8.166-5.636 1.402-.496 2.238-1.83 2.853-3.19.256-.567.475-1.162.625-1.764.435-1.732 1.428-2.91 3.088-3.651.704-.316 1.482-.953 1.762-1.635.621-1.508 1.278-3.029.754-4.82-.522-1.784-.489-3.749-1.122-5.48-.634-1.728-1.803-3.258-2.714-4.886-.202-.362-.276-.794-.473-1.156-2.805-5.124-7.212-8.478-12.296-11.076-3.46-.746-6.367-3.012-9.947-3.531-1.38-.201-2.829-.92-3.938-1.795-2.802-2.208-5.903-2.876-9.366-2.608-1.444.111-2.912-.172-4.368-.157-4.844.048-9.506.727-13.59 3.693-.979.712-2.272.988-3.414 1.478-1.718.736-3.492 1.376-5.13 2.261-1.454.785-2.655 2.079-4.147 2.748-3.703 1.66-6.597 4.333-9.444 7.079-1.527 1.473-3.087 2.644-5.268 3.12-2.535.553-3.645 2.606-3.977 5.054-.283 2.091.257 4.139.409 6.207.355 4.827 2.455 8.785 5.639 12.239 1.973 2.141 4.132 4.112 6.177 6.188 1.493 1.514 3.149 2.584 5.296 3.102 2.415.584 4.707 1.568 6.513 3.498.652.697 1.794.99 2.76 1.326 1.57.544 3.271.78 4.754 1.488 3.476 1.659 7.088 2.38 10.644 2.152Zm-13.659 38.034-7.912 1.788c-.487-.36-.953-.988-1.468-1.03-1.863-.152-3.741-.154-5.615-.126-6.257.086-12.514.301-18.772.278-2.769-.008-5.39.3-7.873 1.54-1.152.574-2.36.782-3.639.671-1.553-.136-2.809-.759-3.588-2.152-.909-1.631-1.857-3.245-2.662-4.928-1.224-2.556-1.796-5.116.277-7.605.856-1.028.864-2.343.643-3.587-.219-1.225-.639-2.415-.936-3.628-.398-1.617-.967-3.227-1.095-4.867-.22-2.804-1.188-5.242-2.723-7.549-1.037-1.56-1.856-3.264-2.868-4.841-.968-1.511-2.388-2.292-4.236-2.131-.83.073-1.672.097-2.486.253-.6.116-1.248.296-1.728.647-1.847 1.352-3.69 2.721-5.419 4.216-.767.663-1.388 1.576-1.848 2.491-1.545 3.077-3.889 5.373-6.675 7.313-2.225 1.547-4.326 3.277-6.585 4.769-1.556 1.028-3.261 1.844-4.948 2.654-2.712 1.298-5.62 1.754-8.535 1.092-2.693-.612-5.382-.522-8.086-.591-1.875-.048-3.779.023-5.617-.284-3.75-.624-6.84-2.563-7.782-6.349-1.024-4.114-2.752-7.834-4.757-11.49-1.146-2.088-1.314-4.352-1.262-6.676.041-1.822.781-3.196 2.31-4.168.869-.552 1.73-1.114 2.628-1.693.404-2.585.266-5.067-.114-7.543-.127-.822-.36-1.628-.547-2.441-1.585-6.924-2.726-13.896-2.663-21.037.014-1.646-.327-3.322-.694-4.94-1.53-6.766-2.038-13.526-1.121-20.471.625-4.733.517-9.572.608-14.367.188-10.066-.883-8.326 3.272-19.517.65-1.755 1.204-3.552 1.955-5.264.853-1.948 2.251-3.444 4.087-4.603 2.465-1.554 4.847-3.244 7.225-4.933 2.222-1.579 4.5-3.008 7.19-3.672 1.836-.453 3.452-1.401 5.115-2.281 4.152-2.199 8.4-2.192 12.575-.019 1.66.863 3.242 1.879 4.828 2.876 1.262.795 2.233 1.823 2.586 3.369.286 1.258 1.058 2.254 2.086 3.032 3.572 2.7 6.141 6.203 8.186 10.138.383.738.787 1.486 1.306 2.132 2.922 3.636 4.778 7.716 5.93 12.261.882 3.472 2.915 6.396 6.043 8.471 1.845 1.224 3.777 1.732 5.917 1.485 3.536-.407 6.931-1.323 9.972-2.912 1.299-2.364 2.582-4.512 3.682-6.751 1.105-2.252 1.921-4.505.986-7.181-.888-2.545-.022-4.925 1.85-6.888.074.191.17.38.222.58.547 2.131 1.974 3.089 4.114 3.029.617-.017 1.24-.138 1.844-.285 1.216-.293 1.972.288 2.532 1.263.413.721.792 1.461 1.194 2.188 1.11 1.996 2.918 2.916 5.087 3.154 1.872.207 3.688.014 5.517-.63 2.135-.752 4.212-1.863 6.583-1.742 2.147.111 4.121-.496 5.987-1.462 2.569-1.33 5.08-1.231 7.829-.387 3.759 1.153 7.607 2.057 11.636 1.725 2.069-.17 4.131-.096 6.148-.824 1.147-.413 2.451-.392 3.684-.566l28.015.134c.514.346 1.074.639 1.533 1.046 2.111 1.873 4.493 1.954 6.968 1.005 1.149-.44 2.201-1.136 3.297-1.716 1.226 3.135 1.888 6.373 2.034 9.747.081 1.864.458 3.714.714 5.569.202 1.445.57 2.885.603 4.333.065 2.955.799 5.782 1.48 8.614.683 2.842 1.719 5.504 3.537 7.917 1.618 2.148 2.784 4.643 4.086 7.019.914 1.669 1.986 3.145 3.576 4.27 1.184.838 2.338 1.79 3.277 2.887 2.075 2.424 4.675 3.371 7.775 3.268.832-.027 1.668.093 2.502.105 8.888.122 15.599-3.76 20.419-11.117.684-1.044 1.285-2.201 2.176-3.04 1.907-1.799 2.943-4.025 3.611-6.465.729-2.663 1.945-5.055 3.693-7.18.813-.988 1.253-2.107 1.568-3.355.455-1.809.961-3.652 1.793-5.307 1.163-2.312 1.66-4.681 1.656-7.232-.004-2.3.186-4.58 1.044-6.765.706-1.797.427-3.711.487-5.58.041-1.217-.157-2.476.561-3.611 1.271.13 2.484.251 3.672.371 1.003-1.88.975-3.72.563-5.569-.225-1.012-.685-1.974-.895-2.988-.437-2.126-.328-4.159 1.348-5.82 1.16-1.151 1.298-2.611.974-4.079-.492-2.235-.966-4.497-1.74-6.64-1.631-4.512-3.424-8.965-5.206-13.419-1.01-2.526-2.332-4.872-4.096-6.989-1.466-1.757-2.886-3.597-4.026-5.575-2.31-4.001-5.403-7.417-8.024-11.18-1.336-1.918-3.08-3.409-5.072-4.589-3.07-1.819-5.847-3.983-8.404-6.477-1.18-1.152-2.614-2.07-4.014-2.963-2.65-1.689-5.202-3.515-7.401-5.753-2.941-2.996-6.329-5.443-9.596-8.032-2.451-1.942-5.016-3.759-8.025-4.796-2.444-.843-4.434-2.37-6.011-4.352-2.855-3.592-5.665-7.224-8.351-10.943-1.83-2.535-3.465-5.201-5.597-7.525-1.119-1.22-2.047-2.643-2.913-4.063a818.188 818.188 0 0 1-8.012-13.415c-.626-1.069-1.199-2.225-1.499-3.416-.515-2.041-1.132-3.984-2.481-5.657-.375-.464-.54-1.127-.704-1.725-1.239-4.524 1.098-7.291 5.568-7.786 1.846-.204 3.769-.057 5.621.199 4.964.685 9.949 1.089 14.943 1.451 1.441.104 2.918.393 4.27.894 1.987.736 3.564 1.942 4.35 4.144 1.398 3.926 3.113 7.739 4.545 11.652 1.684 4.606 4.441 8.514 7.757 12.008 7.044 7.42 14.51 14.414 22.035 21.346 1.563 1.44 3.356 2.44 5.253 3.334 2.262 1.066 4.556 2.094 6.692 3.378 2.322 1.394 4.476 3.057 6.338 5.072 1.432 1.549 3.09 2.602 5.225 3.222 3.057.886 5.437 3.063 7.572 5.384 2.544 2.764 5.009 5.592 7.836 8.087.928.819 1.657 1.876 2.4 2.883 1.859 2.518 3.717 5.037 5.485 7.62a49.712 49.712 0 0 1 2.891 4.825c1.272 2.395 2.447 4.843 3.636 7.28 1.835 3.761 3.484 7.572 3.935 11.812.15 1.432.609 2.868 1.141 4.217 1.087 2.754 1.651 5.666 1.871 8.534.369 4.821 1.673 9.433 2.488 14.149.177 1.027.358 2.056.453 3.091a22.605 22.605 0 0 1-1.255 9.853c-.496 1.373-.973 2.761-1.585 4.084-.812 1.753-1.031 3.591-1.077 5.483-.106 4.392.068 8.776.789 13.108.439 2.632-.099 4.984-1.58 7.085-.767 1.085-1.197 2.181-1.212 3.456-.041 3.864-1.281 7.351-3.143 10.691-.909 1.633-1.56 3.409-2.358 5.105-.531 1.129-.942 2.375-1.711 3.32-1.881 2.309-3.084 4.953-4.155 7.672-.705 1.793-1.798 3.279-3.137 4.623-1.62 1.625-3.28 3.217-4.832 4.906-2.429 2.644-5.149 4.859-8.425 6.388-2.847 1.33-5.407 3.136-7.99 4.91a46.618 46.618 0 0 1-5.365 3.186c-2.624 1.322-5.38 2.282-8.396 2.159-2.176-.088-4.088.651-5.848 1.883-3.68 2.574-7.731 4.021-12.259 4.133-1.01.025-2.17.175-2.989.697-3.229 2.063-6.751 3.231-10.48 3.903-1.545.279-2.655 1.045-3.159 2.648-.581 1.851-1.945 3.184-3.285 4.508-1.529 1.513-2.501 3.315-2.899 5.435-.5 2.662-.924 5.345-1.561 7.977-.587 2.423-1.412 4.789-2.141 7.205.417 1.212.84 2.379 1.221 3.559.535 1.651.293 3.291-.112 4.929-.217.878-.757 1.444-1.536 1.839-1.507.764-3.056 1.329-4.788 1.236-1.46-.079-2.935-.008-4.379-.197-4.328-.563-8.744-.487-12.97-1.807a8.44 8.44 0 0 0-2.46-.377c-5.008-.023-10.014.008-15.022.021-.613-.013-1.297-.209-1.829-.008-3.356 1.273-6.812 1.209-10.324 1.127-4.928-.116-9.865-.228-14.789.337-1.828.208-3.691.123-5.539.171Z"/>
  <path fill="#A98025" d="M242.623 298.283c-1.233.175-2.536.154-3.682.567-2.019.728-4.079.653-6.148.824-4.031.332-7.878-.572-11.636-1.725-2.751-.844-5.26-.943-7.83.388-1.866.965-3.841 1.572-5.988 1.461-2.37-.121-4.448.989-6.582 1.741a12.243 12.243 0 0 1-5.516.631c-2.171-.239-3.979-1.159-5.087-3.155-.404-.726-.783-1.466-1.196-2.188-.559-.974-1.315-1.556-2.532-1.262-.603.146-1.225.269-1.843.285-2.141.06-3.566-.899-4.114-3.029-.051-.2-.147-.39-.222-.58-.438-1.223-1.018-2.267-2.541-2.36-1.248-.078-2.52-.116-3.727-.402-1.756-.416-2.905-1.608-3.322-3.384-.19-.806-.23-1.649-.304-2.478-.211-2.342 1.304-4.039 3.205-4.879.943-.415 2.007-.548 3.004-.849.777-.235 1.535-.531 2.361-.822.702-3.814 1.26-7.513 1.255-11.284-.007-4.176.076-8.352 0-12.525-.039-2.076-.317-4.151-.536-6.221-.267-2.519-.085-4.95.701-7.402 1.088-3.392 5.451-5.645 9.062-2.494.936.816 1.906 1.666 2.584 2.685 1.148 1.731 2.132 3.579 3.074 5.432.564 1.108.999 2.3 1.358 3.495 1.492 4.952 5.121 7.98 9.341 10.48.532.316 1.139.534 1.739.698 1.6.44 3.214.826 4.61 1.179 1.056-.519 1.516-1.195 1.732-2.025 1.679-6.452 3.776-12.794 4.556-19.471.336-2.885 1.179-5.743 2.844-8.22 1.547-2.3 2.274-4.901 3.004-7.516.392-1.403.712-2.847 1.3-4.168a6.898 6.898 0 0 1 1.868-2.437c3.186-2.623 7.944-1.294 9.1 2.64 1.47 4.998 2.77 10.053 4 15.117 1.482 6.091 3.287 12.057 5.686 17.861 1.349 3.266 2.308 6.694 3.409 10.059.329 1.005.649 1.985 1.787 2.671.542-1.578 1.105-3.126 1.609-4.695 1.08-3.356 3.211-5.799 6.331-7.4 1.105-.569 2.22-1.119 3.201-1.612.175-.349.325-.528.352-.724.208-1.435.068-3.028.665-4.269.699-1.451 2.027-2.6 3.095-3.867.401-.479.795-.983 1.275-1.376 1.67-1.369 2.738-3.128 3.4-5.147 1.116-3.4 3.474-5.616 6.633-7.105a46.12 46.12 0 0 0 2.78-1.429c2.116-1.183 4.003-.782 5.737.777.463.417.908.856 1.271 1.197 1.187 2.747.844 5.435.297 8.115-.873 4.292-1.694 8.597-2.705 12.857-1.113 4.692-1.632 9.464-1.955 14.24-.378 5.614-.624 11.246-.041 16.883.301 2.901.291 5.833.441 8.751.143 2.746-.185 5.406-1.344 7.933-1.098.584-2.15 1.279-3.298 1.72-2.476.949-4.859.867-6.97-1.007-.458-.406-1.018-.7-1.532-1.044-.218-.78-.232-1.726-.698-2.306-1.03-1.278-2.29-2.371-3.346-3.432-4.382.582-4.382.582-9.393-.948-4.104 1.71-8.327 3.449-12.525 5.244-.736.314-1.372.865-2.054 1.306Z"/>
  <path fill="#A97F25" d="M337.186 670.398c2.292.288 4.54.332 6.792-.436 3.038-1.037 6.178-.9 9.268-.257 4.696.976 9.438 1.59 14.196 2.169 2.677.327 5.328.94 7.961 1.552 1.82.425 3.561 1.189 5.383 1.599 5.254 1.178 9.753 3.573 12.956 7.678 1.218.64 2.24.354 3.276.294 4.566-.264 8.581 2.376 10.266 6.566 1.262 3.136 1.548 6.472 2.126 9.746.34 1.936-.735 3.622-.994 5.277-2.844 2.233-5.72 2.912-9.03 1.459-1.967.564-3.439 2.14-5.26 3.098-1.708.899-2.856 2.378-4.011 3.867-.364.471-.944.831-1.496 1.084-.943.433-1.929 1-2.921 1.053-3.396.179-6.45 1.434-9.556 2.612-.943.358-2.04.379-3.071.41a15.32 15.32 0 0 1-3.115-.204c-3.761-.659-7.498-.378-11.19.368-2.886.584-5.772.77-8.699.793-3.541.027-7.036.349-10.545 1.051-4.938.988-9.944 1.002-14.808-.732-2.976-1.063-6.052-1.531-9.21-1.442-10.248.295-17.869-4.814-24.378-12.022-2.583-2.862-3.931-6.36-3.904-10.296.006-1.043-.018-2.087.017-3.127.161-4.901 1.165-9.511 4.591-13.292.268-.293.369-.736.548-1.112.752-.256 1.51-.496 2.257-.768 2.441-.893 4.86-1.865 7.504-2.004 1.735-.148 3.207.415 4.692 1.332 1.013.627 1.528 2.116 3.444 1.829l8.141-5.076 1.21-.482c2.092-.12 4.228-.019 6.128-1.164 3.885.129 7.762.186 11.432-1.423Zm-157.061 11.418c2.216 1.366 3.703 3.254 4.46 5.786.772 2.584 1.767 5.103 2.576 7.679.887 2.825.123 5.323-1.808 7.481-.83.93-1.726 1.81-2.658 2.639-2.052 1.823-3.707 3.891-4.786 6.457-1.182 2.818-3.388 4.624-6.149 5.906-9.976 4.628-8.2 4.534-19.724 4.096-2.496-.095-4.999-.072-7.497-.07-2.71.006-5.396-.05-8.076-.629-1.611-.349-3.306-.376-4.966-.419-2.497-.065-5-.082-7.497-.002-7.123.234-14.104-.803-21.059-2.175-2.856-.565-5.742-.983-8.596-1.56-1.416-.287-2.8-.759-4.181-1.2-2.308-.739-4.063-2.137-4.817-4.504-.46-1.435-1.267-2.587-2.26-3.683-2.836-3.13-3.704-6.832-3.32-10.993.329-3.547 1.068-6.989 2.065-10.388.292-.995.708-1.956 1.115-2.913 2.5-5.882 6.946-9.319 13.28-9.934 2.732-.266 5.334-.792 7.876-1.713 2.384-.861 4.836-1.245 7.35-1.261 4.999-.031 9.996-.051 14.995-.036 2.457.006 4.404 1.058 5.804 3.09.343.496.673.999 1.092 1.622.601-.278 1.197-.419 1.62-.77 1.368-1.136 2.94-1.504 4.657-1.449 1.872.06 3.744.18 5.618.188 2.497.008 4.996-.065 7.494-.104 2.447.048 4.894.171 7.339.121 3.083-.061 6.109.112 8.997 1.314.946 1.26 2.376 1.433 3.774 1.681 2.054 2.385 4.434 4.361 7.282 5.743Z"/>
  <path fill="#F0BE41" d="M396.016 562.881c.252-.309.443-.755.77-.909 1.473-.692 2.978-1.228 4.333-2.246 1.275-.956 2.928-1.409 4.421-2.073 1.87-.832 3.918-1.403 5.578-2.539 2.422-1.658 5.042-2.688 7.793-3.528.783-.238 1.548-.537 2.312-.832 1.579-.606 2.883-1.497 3.655-3.106.233-.488.89-.775 1.356-1.155 1.662-.065 3.325-.189 4.988-.183 1.886.007 3.705.367 5.444 1.187 1.69.799 3.441 1.469 5.188 2.143 2.561.986 4.782 2.536 6.897 4.22 2.439 1.941 4.747 4.048 7.147 6.04 1.474 1.224 2.57 2.728 3.418 4.41 1.688 3.359 2.864 6.918 3.886 10.522.278.981.333 2.06.31 3.088a98.32 98.32 0 0 1-1.276 13.661c-.164 1.003-.505 2.056-1.048 2.905-2.709 4.239-4.602 8.86-6.446 13.499-1.031 2.592-2.543 4.693-4.804 6.36-2.679 1.976-5.224 4.071-8.484 5.152-2.476.82-4.856.925-7.348.327-2.214-.53-4.236-1.971-6.595-1.694-2.052.24-4.103.692-6.084 1.284-3.163.944-6.225.263-9.244-.448-2.027-.477-3.781-1.714-5.249-3.249-3.454-3.611-7.094-7.065-10.308-10.877-6.195-7.348-8.619-16.003-8.019-25.543.121-1.909.867-3.648 1.7-5.32 1.853-3.723 3.799-7.4 5.709-11.096Zm-352.431-5.189c2.114 1.248 4.18 2.59 6.358 3.715 2.002 1.035 4.09 1.92 6.2 2.713 3.538 1.334 6.656 3.187 8.798 6.411.113.171.257.32.377.487 1.936 2.673 4.35 3.645 7.47 2.105a48.1 48.1 0 0 1 3.462 7.327c.648 1.742 1.547 3.394 2.37 5.069 1.525 3.103 2.051 6.32 1.126 9.695-1.377 5.017-2.57 10.07-3.356 15.221-.319 2.084-1.165 3.98-2.439 5.683a86.317 86.317 0 0 0-2.536 3.561c-2.033 3.031-5.078 4.431-8.504 4.461-4.228.038-8.22 1.163-12.312 1.851-6.008 1.008-11.993 1.095-17.932-.539-2.242-.617-4.368-1.497-6.117-3.002-3.625-3.119-7.341-6.146-10.304-9.972-1.552-2.004-2.845-4.099-3.564-6.531-1.003-3.389-2.04-6.771-2.961-10.183-.94-3.477-.986-7.017-.056-10.492 1.017-3.809 1.83-7.69 3.621-11.26.367-.73.55-1.562.756-2.361 1.061-4.109 3.767-6.892 7.327-8.908 5.144-2.912 10.65-4.692 16.597-4.919 1.872-.072 3.745-.09 5.619-.132Z"/>
  <path fill="#EFBD41" d="M180.125 681.816c-2.848-1.381-5.228-3.357-7.281-5.747-.064-1.425-.118-2.848-.208-4.27-.01-.15-.215-.394-.352-.411-.375-.047-.951-.152-1.108.043-.764.937-1.416 1.965-2.107 2.961-2.888-1.201-5.915-1.375-8.997-1.313-2.446.049-4.892-.074-7.339-.122-.412-1.062-1.413-1.493-2.291-1.996-.497-.284-1.206-.469-1.745-.353-1.209.26-2.345.9-3.557 1.097-4.46.73-7.591.128-8.275-5.816-.808-7.008-1.115-14.104.929-21.065 1.415-4.813 3.028-9.511 5.912-13.673.728-1.051.196-1.951-.297-2.86 1.547-.399 2.739.854 4.197.866 2.279.018 4.556.107 6.834.126 3.729.028 7.457.054 11.185.024 3.305-.027 6.595.018 9.833-1.031 1.528-.496 3.279-.308 4.931-.428 1.909 1.445 2.395 1.508 3.915.315.432-.339.725-.858 1.082-1.292 1.36-.299 2.715-.614 4.08-.886.771-.153 1.558-.233 2.335-.345.461.412.873.904 1.392 1.22 2.333 1.423 3.337 3.612 3.596 6.199.561 5.596.661 11.166-1.195 16.593-.334.979-.613 1.976-.941 2.956-.857 2.559-1.475 5.147-1.691 7.863-.277 3.521-1.198 6.936-2.546 10.2-1.039 2.514-2.43 4.805-5.01 6.106-.536.271-1.186.632-1.421 1.126-.847 1.774-2.821 2.374-3.86 3.913Z"/>
  <path fill="#A97F25" d="M223.995 48.438c.094-1.248.169-2.497.288-3.741.12-1.27-.002-2.388-.836-3.508-.586-.785-.77-1.917-.975-2.927-.332-1.63.587-3.417 2.044-4.2.549-.294 1.089-.673 1.68-.809 2.452-.564 5.009-1.075 7.427-.363 2.273.671 4.358.952 6.63.142.947-.338 2.066-.295 3.102-.264 3.332.102 6.662.362 9.958-.426a2.933 2.933 0 0 1 1.242-.009c6.194 1.281 12.469.285 18.692.696 2.488.164 4.972.448 7.445.781 3.003.406 5.46 1.987 7.701 3.906 2.42 2.066 3.063 5.76 1.547 8.556-.295.544-.627 1.094-1.053 1.536-1.063 1.102-1.688 2.393-1.715 3.912-.076 4.35-1.817 8.073-4.249 11.55-1.076 1.536-2.091 3.119-3.219 4.614-.621.822-1.296 1.761-2.171 2.204-1.968.998-3.117 2.676-4.348 4.356-.886 1.212-2.134 1.96-3.616 2.294-2.853.644-5.677 1.267-8.624.314-1.809-.584-3.716-.412-5.573-.006-3.62.79-7.056.16-10.297-1.488-1.71-.868-3.49-1.252-5.354-1.578-6.866-1.206-8.394-2.204-11.425-8.295-.185-.373-.328-.775-.555-1.12-3.248-4.913-4.265-10.34-3.746-16.127Z"/>
  <path fill="#EFBE41" d="M337.186 670.398c-3.669 1.609-7.546 1.552-11.432 1.422-.373-.413-.676-1.006-1.142-1.194-.484-.198-1.24-.2-1.679.053-1.16.671-2.5 1.12-3.307 2.305-.404.163-.806.323-1.204.482-1.61-.24-3.222-.54-4.848-.696-1.213-.115-2.47.108-3.662-.094-1.175-.197-2.291-.742-3.302-1.089l-3.509 1.701c-.892.434-.887 1.284-.961 2.094-2.644.138-5.063 1.11-7.504 2.004-.747.272-1.506.512-2.258.768-2.07-1.248-3.128-3.303-3.969-5.404-1.389-3.467-3.1-6.78-4.589-10.191-3.332-7.632-5.69-15.551-5.932-23.971-.064-2.292.021-4.558.686-6.772 2.996.802 6.014 1.21 9.139 1.146 5.572-.112 11.148.012 16.723 0 2.882-.007 5.778.14 8.572-.894.75-.277 1.629-.293 2.448-.288 3.918.023 7.837.094 11.756.147 4.536 9.92 7.368 20.361 9.418 31.031.272 1.416.144 2.908.243 4.36.068 1.03.207 2.053.313 3.08Z"/>
  <path fill="#FFFEFD" d="M226.902 391.246c-3.556.228-7.168-.493-10.644-2.152-1.482-.708-3.184-.944-4.753-1.488-.967-.336-2.108-.629-2.76-1.326-1.807-1.93-4.099-2.914-6.513-3.498-2.147-.518-3.803-1.588-5.296-3.102-2.046-2.076-4.204-4.047-6.178-6.188-3.184-3.454-5.284-7.412-5.638-12.239-.152-2.068-.692-4.116-.41-6.207.332-2.448 1.443-4.501 3.978-5.054 2.181-.476 3.741-1.647 5.268-3.12 2.846-2.746 5.741-5.419 9.444-7.079 1.492-.669 2.693-1.963 4.146-2.748 1.639-.885 3.412-1.525 5.131-2.261 1.141-.49 2.435-.766 3.413-1.478 4.084-2.966 8.747-3.645 13.591-3.693 1.456-.015 2.924.268 4.368.157 3.463-.268 6.564.4 9.365 2.608 1.11.875 2.559 1.594 3.939 1.795 3.58.519 6.487 2.785 9.947 3.531 5.084 2.598 9.49 5.952 12.296 11.076.197.362.27.794.473 1.156.911 1.628 2.08 3.158 2.713 4.886.634 1.731.6 3.696 1.123 5.48.524 1.791-.133 3.312-.755 4.82-.28.682-1.057 1.319-1.761 1.635-1.66.741-2.653 1.919-3.088 3.651a10.57 10.57 0 0 1-.625 1.764c-.615 1.36-1.451 2.694-2.854 3.19-3.253 1.151-5.31 3.943-8.165 5.636-2.136 1.267-4.097 2.824-6.145 4.24-.342.235-.699.503-1.088.604-4.422 1.162-8.488 3.464-13.088 4.048-.615.079-1.258.192-1.812.448-2.362 1.09-4.838 1.154-7.622.908Z"/>
  <path fill="#000" d="M249.786 436.747c.034.504-.146 1.261.152 1.632.78.961 1.77 1.753 2.675 2.614.753.718 1.76 1.306 2.209 2.179 1.638 3.193 4.351 5.591 6.162 8.627 1.104 1.85 2.586 3.216 4.33 4.42 1.19.821 2.516 1.67 3.282 2.837 1.87 2.855 4.622 4.788 6.936 7.172.213.219.762.155 1.15.131.115-.007.288-.32.302-.503.306-3.94.634-7.88.873-11.824.355-5.873-.897-11.632-1.331-17.449-.056-.743-.896-1.492-1.73-1.49-5.214.014-10.427.054-15.642.098-.413.004-.829.092-1.24.162-2.657.452-5.314.911-8.128 1.394Zm-75.381 5.397c.667 4.429.567 9.239 2.372 13.805a34.814 34.814 0 0 1 2.433 13.446c-.016 1.026.152 2.069.367 3.077.051.239.683.577.959.508 2.456-.605 4.642-1.768 6.68-3.271 1.164-.86 2.368-1.752 3.69-2.292 2.548-1.041 4.83-2.384 6.664-4.464.406-.457.947-.836 1.491-1.125 1.905-1.017 3.159-2.613 4.367-4.359.932-1.345 2.096-2.666 3.449-3.546 2.292-1.49 4.321-3.215 6.267-5.111 1.026-1 2.364-1.679 3.537-2.536.832-.608 1.861-1.116 2.391-1.936 1.585-2.452 3.464-4.659 5.262-6.936.1-.128-.256-.913-.458-.941-7.062-.932-14.132-.48-21.2-.043-.41.024-.824.149-1.212.293-2.42.891-4.922.71-7.42.599-2.078-.092-4.158-.259-6.235-.235-2.921.032-5.828.082-8.717-.481-.802-.156-1.658-.055-2.487-.036-.616.015-1.704.957-1.779 1.561-.153 1.234-.262 2.474-.421 4.023Zm157.116 222.221c-.263-.894-.445-1.924-.859-2.853-1.877-4.223-3.004-8.631-3.709-13.193-.412-2.667-1.12-5.303-1.88-7.898-.404-1.378-1.168-2.658-1.831-3.952-.614-1.196-1.704-1.829-2.982-2.042-2.892-.486-5.812-.507-8.73-.266-3.138.259-6.238.172-9.318-.602-2.452-.618-4.987-.742-7.452-.226-3.132.658-6.194.543-9.308-.041-1.203-.225-2.474-.101-3.715-.113-.469-.004-.999.906-.864 1.422.107.402.16.822.304 1.208 2.639 7.03 4.796 14.187 6.169 21.587.684 3.68 1.708 7.297 2.612 10.933.318 1.279 1.428 2.283 2.622 2.347 4.578.245 9.137.472 13.634-.931 4.194-1.305 8.51-1.992 12.938-1.877 1.872.049 3.782.071 5.616-.245 2.436-.416 4.933-.932 6.753-3.258Zm-176.555-32.228-.013.191c-1.663 0-3.327-.021-4.991.007-1.354.022-2.46.622-3.001 1.865-1.241 2.855-2.477 5.72-3.537 8.645-.99 2.731-1.76 5.54-2.607 8.32-.969 3.183-1.825 6.354-1.811 9.759.019 4.5-.542 5.108 4.819 6.084.811.148 1.579.523 2.38.741 4.483 1.228 9.035 1.444 13.583.571 2.294-.44 4.49-.403 6.794-.105 3.291.425 6.626.557 9.947.669 3.429.115 6.455-1.917 7.78-5.136 1.107-2.688 2.131-5.411 3.149-8.133.727-1.944 1.491-3.883 2.05-5.878 1.12-4.006 2.186-8.022 4.044-11.774.181-.368.278-.783.392-1.182.057-.197.045-.413.096-.613.213-.853-.34-1.807-1.126-1.828-4.572-.117-9.144-.252-13.717-.308-4.995-.06-9.969-.179-14.923-1.007-3.066-.513-6.202-.606-9.308-.888Zm126.675-602.9c0-2.047.359-4.815-.064-7.457-1.613-10.072-.121-9.51-10.957-10.02-1.44-.068-2.903.235-4.348.412-3.116.384-6.224.608-9.336-.041-2.502-.524-5.004-.126-7.446.312-1.856.332-3.71.459-5.569.673-4.149.479-8.3.718-12.472.696-.412-.002-.825.115-1.235.185-.861.151-1.974 1.231-2.109 2.103-.127.82-.263 1.647-.276 2.473-.089 5.212-.147 10.426-.215 15.64-.073 5.671.839 11.209 2.182 16.7 1.105 4.515 2.974 8.69 5.678 12.44 2.468 3.42 5.484 6.34 9.592 7.707 5.471 1.82 11.058 1.901 16.652.541.799-.194 1.57-.562 2.302-.948 4.504-2.376 8.381-5.468 10.841-10.029 1.679-3.113 3.263-6.272 4.119-9.757 1.69-6.893 3.401-13.773 2.661-21.63ZM11.411 592.673c0 1.582-.073 3.46.02 5.331.106 2.097.542 4.185 1.635 5.976 2.61 4.271 5.398 8.433 9.176 11.795.919.817 1.962 1.577 3.074 2.078 4 1.806 8.198 3.051 12.554 3.57 2.479.296 4.968.421 7.424.962 2.054.451 4.11.308 6.174-.296 2.405-.705 4.76-1.393 6.86-2.878 1.345-.952 2.945-1.543 4.416-2.323 7.366-3.909 8.18-4.792 11.49-12.376.084-.189.206-.365.278-.56 1.485-3.929 2.613-7.917 2.002-12.192-.561-3.928-1.357-7.792-2.842-11.493-.414-1.031-1.056-1.886-2.075-2.187-2.808-.832-5.539-1.788-8.05-3.349-.674-.419-1.57-.574-2.385-.66-2.64-.28-4.386-2.334-6.645-3.248-2.459-.998-5.404-.339-7.855-1.762a62.042 62.042 0 0 0-2.742-1.486c-1.296-.666-2.57-1.392-3.916-1.934-2.704-1.085-5.426-2.166-8.362-.593-.508.272-1.226.16-1.85.199-4.095.253-7.64 1.924-10.836 4.36-3.062 2.333-5.28 5.249-6.03 9.164-.862 4.502-1.984 8.964-1.514 13.902Zm384.47-14.12c0 .878.007 1.295-.001 1.712-.102 5.283.556 10.367 3.534 14.944.668 1.026 1.039 2.284 1.359 3.484.467 1.744 1.601 2.879 3.023 3.824 2.428 1.616 5.001 3.054 7.253 4.884 2.688 2.183 5.808 3.258 9.013 4.119 4.055 1.091 8.156 1.639 12.33.291 1.361-.439 2.885-.359 4.334-.528 3.367-.391 6.422-1.452 9.176-3.564a43.653 43.653 0 0 0 5.532-5.011c2.714-2.927 4.79-6.297 7.2-9.431 1.335-1.734 1.967-3.649 2.08-5.774.322-6.084-.429-12.068-1.758-17.994-.518-2.302-1.628-4.265-3.419-5.832-1.881-1.645-3.839-3.218-5.605-4.982-4.555-4.55-9.971-6.623-16.396-6.11-1.47.119-2.831.467-4.215 1.012-5.428 2.139-10.449 5.095-15.657 7.67-2.979 1.473-5.834 3.193-8.582 5.074-1.197.822-2.322 1.772-3.59 2.46-1.836.998-3.851 1.791-5.087 3.528-1.459 2.051.019 4.476-.524 6.224Zm-25.947 132.478c2.502 0 5.006.046 7.506-.02 1.24-.032 2.553-.051 3.696-.459 2.94-1.056 5.825-2.241 8.932-2.757.385-.064.737-.363 1.093-.57 1.8-1.038 3.591-2.094 5.397-3.118 1.354-.77 2.171-1.999 2.575-3.4.339-1.178.588-2.518.372-3.692-.795-4.342-2.245-8.414-5.297-11.796-2.45-2.715-5.564-4.315-8.794-5.804-2.108-.974-4.276-1.528-6.62-1.62-8.104-.323-21.221.241-29.845 1.342-2.289.294-4.569.246-6.8-.509-1.377-.465-2.872-.663-4.164-1.291-1.856-.901-3.564-.865-5.387-.014-3.64 1.698-7.51 2.378-11.506 2.505-2.083.065-4.17.171-6.24.392-2.066.221-4.148.463-6.16.953-3.031.739-5.972 1.842-9.142 1.944-.358.012-.937.296-1.022.575-.647 2.085-2.438 2.681-4.152 3.471-.494.226-.859.881-1.128 1.417-1.395 2.772-1.335 5.588-.283 8.475 1.471 4.034 4.279 7.102 7.157 10.122.418.439.984.819 1.556 1.018 2.352.818 4.692 2.024 7.108 2.225 4.35.361 8.655 1.155 13.067 1.059 5.62-.124 11.249.1 16.872.29 6.463.216 12.937.34 19.363-.285 3.957-.387 7.892-.501 11.846-.453Zm-251.457 3.241c6.681-.012 13.336.385 19.889 1.785a34.83 34.83 0 0 0 11.819.483c.825-.107 1.673-.256 2.491-.176 3.384.327 6.634.12 9.653-1.705.68-.412 1.588-.488 2.407-.623 4.456-.737 7.822-3.829 11.854-5.484.539-.22.908-.843 1.375-1.259.932-.828 1.873-1.646 2.819-2.46 2.244-1.926 3.156-4.305 2.561-7.246a69.28 69.28 0 0 1-.835-4.93c-.728-5.76-4.25-9.293-9.229-11.662-.548-.262-1.212-.419-1.813-.395-4.366.167-8.7-.437-13.103-.092-5.163.407-10.427.551-15.493-1.165-1.43-.484-2.89-.286-4.316.116-1.219.342-2.447.562-3.698.229-2.866-.767-5.797-.607-8.712-.609-3.34-.003-6.656-.054-9.972-.647-2.03-.364-4.165-.42-6.228-.271-3.526.255-7.034.775-10.548 1.198-.41.048-.828.145-1.21.301-2.888 1.175-5.77 2.372-8.654 3.56-1.348 1.584-2.688 3.175-4.048 4.748a38.074 38.074 0 0 1-1.71 1.825c-.918.932-1.406 2.059-1.508 3.347-.338 4.236-.178 8.347 2.933 11.732.416.455.648 1.069 1.019 1.572 2.049 2.781 4.492 4.827 8.209 4.969 1.635.064 3.276.554 4.87 1.003 5.051 1.423 10.143 2.377 15.43 1.873 1.239-.118 2.499-.017 3.748-.017ZM265.39 290.827l-.001.105c3.336.111 6.671.243 10.008.32 1.035.024 2.076-.081 3.109-.164.675-.055 1.575-.991 1.656-1.653.027-.207.079-.412.084-.62.198-7.296.454-14.592.552-21.89.034-2.492-.074-5.04-.562-7.474-.751-3.736-.756-7.459-.53-11.212.204-3.324.46-6.646.687-9.968.036-.536-.82-.998-1.333-.744-2.271 1.122-4.34 2.498-5.819 4.613-1.431 2.048-2.885 4.08-4.255 6.171-1.252 1.913-2.701 3.75-3.27 6.018-.492 1.962-1.611 3.342-3.352 4.288-1.508.82-2.672 1.902-3.266 3.614-.553 1.601-1.75 2.82-2.946 3.997-1.734 1.707-3.868 2.393-6.248 2.42-2.076.024-3.614-.977-4.307-2.963-1.716-4.914-3.699-9.737-4.865-14.841-.555-2.431-1.387-4.801-2.159-7.179-1.223-3.765-2.541-7.501-3.744-11.274-1.011-3.175-1.911-6.384-2.877-9.572-.054-.174-.298-.436-.41-.416-.33.061-.796.152-.93.389-3.124 5.476-5.076 11.393-6.483 17.508-.421 1.828-.737 3.683-1.208 5.497a35.927 35.927 0 0 1-1.371 4.146c-2.061 5.216-5.192 9.96-6.762 15.402-.199.695-1 1.336-1.679 1.742-.88.525-1.888.909-2.891 1.142-2.629.612-4.982.102-6.776-2.076-2.914-3.536-5.742-7.144-9.105-10.288-.755-.704-1.399-1.562-1.951-2.441-2.581-4.1-6.356-7.124-9.546-10.672-.346-.384-.763-.445-1.098-.097-.265.274-.618.654-.606.978.132 3.959.377 7.915.486 11.875.108 3.959.292 7.925-.553 11.848-.217 1.009-.253 2.065-.289 3.104a693.017 693.017 0 0 0-.327 11.257 71.865 71.865 0 0 0 .111 5.628c.048.815.302 1.639.588 2.412.381 1.028 1.136 1.763 2.256 1.919.818.113 1.661.107 2.49.069 2.315-.105 4.574.014 6.73 1.031 1.18.556 2.456.425 3.668.015 2.416-.819 4.909-.958 7.421-.863 7.712.291 15.423.525 23.139.18 1.249-.056 2.51-.076 3.756.021 4.365.343 8.724.498 13.11.403 2.115-.045 4.162-.067 6.127-.835 1.791-.7 3.636-.877 5.525-.872 3.339.007 6.678.002 10.016.002Zm-175.27 70.31-.166-.001c0 5.632-.061 11.264.019 16.895.067 4.614.957 9.118 2.228 13.546.517 1.804 1.305 3.556 1.597 5.391.472 2.972 1.884 5.499 3.222 8.093.936 1.814 2.525 2.919 4.357 3.267 3.264.619 6.573 1.081 9.941.767 3.219-.302 5.938-1.807 8.716-3.25 2.474-1.285 4.391-3.112 6.008-5.353 1.706-2.364 3.454-4.709 5.35-6.919 1.21-1.41 2.653-2.653 4.121-3.805 2.004-1.573 4.311-2.501 6.904-2.624 2.917-.137 5.837-.271 8.751-.468 4.761-.321 10.842 4.496 12.296 8.361.292.774.545 1.587.644 2.404.149 1.239.193 2.496.198 3.747.032 6.468.13 12.937.012 19.403-.056 3.173.836 3.194 3.112 3.49.619.082 1.248.102 1.874.126 9.169.346 18.337.708 27.509 1.012 1.237.042 2.497-.139 3.728-.334 7.871-1.245 15.749-1.489 23.693-.681 11.039 1.124 22.064.881 33.076-.608 3.504-.475 7.071-.524 10.614-.633 3.336-.103 6.677-.011 10.016-.043 1.038-.011 2.077-.128 3.11-.233.798-.082 1.659-.867 1.687-1.599.2-5.449 1.671-10.673 2.684-15.985 1.645-8.64 6.741-14.66 13.987-18.995 3.761-2.251 8.041-3.387 12.446-3.903 2.482-.29 4.963-.646 7.414-1.129 4.5-.888 8.982-1.875 13.464-2.852 2.457-.536 4.806-1.353 6.946-2.729 4.21-2.706 8.591-5.171 12.624-8.115 5.918-4.321 11.368-9.176 14.647-15.976.357-.741.883-1.416 1.405-2.061 2.14-2.644 3.476-5.647 4.191-8.96.307-1.424.656-2.858 1.164-4.219 3.228-8.629 5.323-17.535 6.664-26.635.337-2.293.531-4.55-.189-6.81a9.89 9.89 0 0 1-.278-4.951c1.538-7.859.935-15.799.9-23.715-.004-.829-.033-1.698-.278-2.478-1.206-3.818-1.32-7.804-1.951-11.71-.432-2.668-1.076-5.316-1.835-7.91-.702-2.396-1.7-4.704-2.54-7.06-.849-2.38-1.961-4.626-3.654-6.508-1.84-2.044-3.22-4.386-4.4-6.815-2.996-6.164-7.57-10.885-13.022-14.883-2.521-1.846-5.034-3.714-7.416-5.734-4.157-3.527-8.592-6.598-13.49-9.008-3.748-1.846-7.315-3.976-10.644-6.539-3.138-2.416-6.46-4.595-9.703-6.875-2.899-2.038-5.832-4.033-8.696-6.121-3.731-2.721-7.007-5.912-9.771-9.629-3.498-4.703-6.493-9.702-8.914-15.036-1.12-2.468-2.111-4.995-3.195-7.479-2.456-5.621-1.752-5.133-7.767-4.849a28.926 28.926 0 0 0-4.341.536c-2.921.586-5.797.578-8.673-.238-.594-.169-1.231-.197-1.85-.269-.204-.023-.416.033-.625.032-.436-.005-1.085.895-.963 1.364 1.814 6.952 5.031 13.252 9.29 18.973 4.106 5.519 8.462 10.858 12.8 16.202 1.438 1.772 3.14 3.337 4.756 4.962 5.174 5.203 11.172 9.391 17.09 13.66 4.058 2.928 8.182 5.782 12.41 8.455 7.796 4.928 15.116 10.413 21.342 17.263 2.244 2.47 4.422 5.001 6.652 7.482 3.368 3.748 5.988 8.018 8.556 12.316.743 1.244 1.391 2.591 1.812 3.974a996.878 996.878 0 0 1 5.663 19.194c1.26 4.45 1.392 9.054 1.585 13.639-.856 3.697-.424 7.461-.497 11.191-.073 3.789-1.009 7.428-1.493 11.142-1.039 7.988-3.963 15.318-7.696 22.335-1.856 3.487-4.278 6.669-6.33 10.057-2.074 3.424-4.997 6.135-7.497 9.199-.515.632-1.213 1.171-1.931 1.565-2.744 1.51-5.553 2.983-8.597 3.695-8.483 1.987-16.908 2.081-25.245-1.011-3.896-1.445-6.926-3.782-9.07-7.285-.758-1.243-1.384-2.569-2.01-3.885-.806-1.694-1.499-3.443-2.332-5.122-3.778-7.616-5.574-15.673-5.524-24.162.008-1.667-.076-3.336-.164-5.002-.06-1.097-.936-2.005-1.92-2.101-.414-.04-.827-.105-1.243-.121-5.211-.212-10.419-.514-15.631-.596-4.365-.07-8.766-.318-12.954 1.486-.908.392-2.051.306-3.087.324-9.177.172-18.348-.716-27.528-.124-.828.052-1.665-.098-2.499-.118-1.876-.046-3.753-.042-5.629-.107-2.08-.073-4.173-.085-6.233-.34-1.902-.236-3.722-.204-5.563.347-3.287.982-6.588 1.038-9.831-.196-1.206-.46-2.421-.538-3.684-.48-3.705.168-3.689.538-4.933 3.666-.232.582-.487 1.156-.655 1.756-1.316 4.67-4.541 7.271-9.072 8.56-2.257.644-4.541.684-6.826.534-5.767-.38-10.418-2.715-13.446-7.855-2.545-4.32-5.112-8.615-6.021-13.66-.221-1.224-.628-2.424-1.04-3.604-.765-2.192-1.916-4.181-3.597-5.795-2.42-2.321-5.043-4.374-8.167-5.701-4.816-2.044-9.801-3.516-14.976-4.276a19.417 19.417 0 0 0-4.371-.112c-3.44.285-6.462 1.403-8.548 4.441-.934 1.36-2.114 2.576-3.304 3.731a11.36 11.36 0 0 0-2.746 4.125c-.376.968-.792 1.932-1.302 2.836-2.061 3.66-3.342 7.628-4.618 11.595-1.544 4.796-2.436 9.693-2.212 14.772.146 3.333.146 6.676.172 10.013.03 3.96-.115 7.922.893 11.82.307 1.19.25 2.49.241 3.739-.042 5.632-.128 11.264-.198 16.897Zm147.313 81.923c-.479.328-.989.667-1.489 1.024-2.89 2.065-5.658 4.205-7.35 7.497-.76 1.476-2.077 2.66-3.585 3.42-2.469 1.246-4.489 2.99-6.344 5.003-.692.753-1.58 1.387-2.489 1.868-1.722.907-3.11 2.12-3.982 3.848-1.893 3.755-6.17 4.895-8.684 7.981-.636.782-1.617 1.299-2.49 1.862-.519.334-1.122.552-1.707.764-1.981.712-3.78 1.7-5.416 3.058-.947.786-2.089 1.383-3.221 1.898-2.287 1.042-4.456 2.206-6.4 3.854-2.119 1.795-4.736 2.759-7.467 2.956-4.424.319-7.483-.877-8.033-5.725-.236-2.072-.514-4.143-.655-6.22a74.255 74.255 0 0 1-.173-6.259 26.307 26.307 0 0 0-1.919-10.393c-1.263-3.129-1.896-6.381-2.061-9.748-.134-2.708-.379-5.413-.583-8.117-.169-2.235-.749-2.704-3.187-2.867-4.008-.268-7.929.177-11.746 1.391-1.596.506-3.16 1.017-4.856 1.118-3.568.208-6.982 1.162-10.351 2.304-2.572.874-5.163 1.664-7.936 1.515-1.492-.081-2.883.352-4.255.891-1.164.456-2.322 1.017-3.536 1.241-3.632.669-6.554 2.496-9.212 4.983-3.533 3.304-7.549 5.918-12.093 7.65-3.405 1.299-6.23 3.432-8.545 6.167a672.884 672.884 0 0 0-13.127 15.951c-2.336 2.932-4.421 6.064-6.596 9.124-.603.846-1.26 1.697-1.647 2.646-2.05 5.048-4.77 9.732-7.608 14.359-.434.708-.782 1.473-1.117 2.236-2.517 5.728-5.084 11.435-7.513 17.201-2.595 6.156-5.36 12.219-8.752 17.986-.844 1.432-1.494 2.982-2.171 4.506-.627 1.411-.235 2.218 1.357 2.902.956.41 1.952.729 2.903 1.152 1.905.844 3.872 1.592 5.664 2.637 2.047 1.195 4.13 1.916 6.513 1.827 2.164-.082 4.076.601 5.808 1.948.97.756 2.07 1.59 3.226 1.816 2.32.45 4.31 1.482 6.302 2.637 1.256.728 2.515.509 3.415-.48 2.812-3.087 5.541-6.213 7.517-9.96 2.435-4.611 4.97-9.176 7.663-13.639 3.124-5.181 6.45-10.24 9.717-15.333 2.376-3.705 5.036-7.209 8.472-9.988 1.968-1.591 3.728-3.311 5.259-5.312 1.412-1.845 3.236-3.175 5.287-4.315 4.041-2.248 8.272-3.844 12.74-5.061 3.516-.959 6.976-1.097 10.528-.925 1.932.093 3.63.802 5.276 1.776 2.776 1.638 4.65 4.092 6.532 6.628 1.536 2.07 2.652 4.25 3.069 6.758.829 4.992 1.12 9.951-.991 14.772-.581 1.328-.841 2.794-1.326 4.171-.415 1.175-.775 2.42-1.451 3.44-1.397 2.108-2.337 4.415-3.403 6.679-.702 1.494-1.502 3.005-2.558 4.257-2.068 2.455-3.446 5.192-4.247 8.272-.527 2.021-1.205 3.972-2.461 5.703-1.487 2.049-2.24 4.466-3.106 6.813-1.372 3.717-2.594 7.493-4.069 11.168-2.639 6.575-5.097 13.219-8.463 19.501-1.652 3.087-2.509 6.6-3.712 9.926-.153.421.63 1.248 1.168 1.224 1.875-.082 3.758-.096 5.619-.304 2.485-.279 4.955-.719 7.432-1.079 2.265-.329 5.053 1.601 5.605 3.917.191.8.358 1.631.355 2.447-.015 3.677-.04 3.717 3.499 3.857 4.169.164 8.344.232 12.513.374 2.084.072 4.225-.058 6.237.38 4.742 1.03 9.532 1.037 14.328 1.168 3.546.098 7.091.265 10.638.318 2.709.039 5.45.178 8.126-.146 3.747-.455 7.488-.526 11.246-.588 2.288-.039 4.605-.091 6.854-.467 4.14-.692 8.292-.92 12.474-.915 9.602.011 19.206.055 28.81-.004 8.771-.054 17.495 1.131 26.272.89 1.242-.035 2.492.225 3.736.372 3.119.368 6.227.468 9.368.156 3.751-.37 7.518-.335 11.202.613 1.653.425 3.305.597 4.953.24 3.337-.725 6.627-.456 9.945.144 1.634.296 3.336.581 4.971.441 4.559-.389 9.085-1.172 13.691-.869.296.02.82-.42.904-.736.269-.995.201-2.103.584-3.036.841-2.059.548-4.02.142-6.116-.832-4.307-1.965-8.535-2.921-12.807-1.459-6.505-2.513-13.101-4.757-19.421-.554-1.557-.807-3.243-1.038-4.891-.634-4.541-1.157-9.096-2.797-13.436-.361-.952-.325-2.053-.475-3.086-1.136-7.838-1.938-15.74-4.498-23.307-.266-.781-.306-1.639-.466-2.457-.436-2.251-.672-4.568-1.361-6.74-1.811-5.714-1.567-11.543-1.264-17.378.184-3.606 1.555-6.928 3.221-10.061 1.687-3.171 4.471-4.892 8.138-4.949 1.25-.02 2.508.196 3.752.125 4.497-.252 8.085 1.652 11.256 4.599 1.222 1.134 2.568 2.181 3.594 3.477 4.278 5.395 8.518 10.804 11.736 16.96 2.606 4.984 5.563 9.785 8.376 14.66.314.539.667 1.069 1.083 1.531 3.241 3.621 5.588 7.821 7.549 12.201 1.9 4.239 4.728 7.855 7.195 11.713.665 1.04 1.641 1.886 2.992 2.132 1.815-.477 3.396-1.418 4.977-2.47a318.212 318.212 0 0 1 12.655-8.01c1.408-.842 3.112-1.176 4.645-1.829.759-.323 1.418-.869 2.15-1.265 1.281-.695 2.557-1.404 3.881-2.007 2.275-1.035 4.603-1.953 6.867-3.008.489-.228.806-.824 1.258-1.309-.385-.86-.724-1.607-1.054-2.355-2.184-4.957-4.707-9.761-6.314-14.976-.854-2.776-1.913-5.54-3.286-8.091a247.89 247.89 0 0 1-4.002-7.776c-1.841-3.729-4.225-7.181-5.602-11.154-.26-.754-.938-1.368-1.448-2.027-2.068-2.655-3.707-5.533-4.826-8.724-.968-2.763-2.305-5.356-3.906-7.82-1.254-1.928-2.396-3.956-2.91-6.209-.521-2.283-1.633-4.246-2.694-6.287-1.931-3.713-3.9-7.359-7.131-10.143-1.331-2.208-3.327-3.704-5.419-5.11-1.556-1.048-3.114-2.102-4.612-3.232-5.042-3.807-10.509-6.727-16.577-8.594-2.231-.685-4.415-1.177-6.733-1.15-2.928.034-5.835-.098-8.714-.754-1.841-.421-3.772-.565-5.568.108-2.838 1.064-5.753 1.023-8.66.762-3.964-.358-7.917-.282-11.885-.235-5.205.061-10.435.353-15.58-.927-1.195-.298-2.489-.25-3.739-.269-2.537-.036-4.97.549-7.322 1.449-.323.124-.714.627-.711.954.012 1.87.003 3.758.244 5.609.703 5.412.633 10.82.196 16.24-.149 1.871-.168 3.751-.268 5.624-.189 3.541-.28 7.093-.639 10.617-.233 2.27-.821 4.51-1.354 6.738-.248 1.033-.942 1.861-1.94 2.33-4.33 2.038-8.928.999-11.767-2.698-1.016-1.323-2.076-2.652-2.832-4.123-.979-1.904-2.429-3.388-3.82-4.928-2.089-2.312-4.727-4.097-6.42-6.811-.411-.656-1.244-1.118-1.972-1.49-2.327-1.188-3.941-3.046-5.216-5.254-1.881-3.256-4.939-5.672-6.537-9.132a1.248 1.248 0 0 0-.406-.472c-2.933-2.053-4.948-5.03-7.522-7.444-.14-.13-.387-.146-.639-.237Zm27.524-359.737c-.405 3.655-.289 7.205-.051 10.732.424 6.245 1.084 12.474 1.548 18.718.308 4.16.416 8.335.679 12.5.143 2.29.379 4.575.645 6.852.174 1.476 1.042 2.084 2.667 1.794 4.132-.738 8.307-.804 12.48-.938 3.961-.125 7.923-.189 11.845-.92 3.126-.582 6.25-.118 9.332.458.795.148 1.552.593 2.275.994 2.381 1.318 3.244 3.534 2.728 6.347-.34 1.852-1.296 2.88-3.083 3.503-1.609.561-3.172.968-4.876.848-1.665-.116-3.341-.327-4.997-.223-3.839.241-4.945.32-3.152 4.796 2.037 5.081 4.763 9.753 7.795 14.248a41.091 41.091 0 0 0 10.48 10.669c4.777 3.366 9.634 6.622 14.346 10.075 4.727 3.463 9.626 6.595 14.887 9.192 4.324 2.135 8.064 5.191 11.908 8.06 2.675 1.996 5.169 4.247 7.931 6.107 4.044 2.722 7.232 6.278 10.358 9.92 1.77 2.062 3.327 4.269 4.446 6.782 1.017 2.292 2.366 4.382 3.988 6.332 2.278 2.744 3.906 5.866 5.105 9.26 1.739 4.92 3.735 9.764 4.665 14.915 1.075 5.943 1.579 11.981 2.95 17.881.232.996.105 2.08.109 3.123.039 9.603.032 19.207.117 28.809.042 4.626-.848 9.136-1.554 13.662-1.26 8.056-3.548 15.858-6.21 23.556-.405 1.174-.706 2.392-.976 3.606-.961 4.338-2.788 8.226-5.518 11.762-1.646 2.13-2.902 4.558-4.371 6.83-.564.872-1.124 1.788-1.864 2.499-5.124 4.901-10.1 9.987-16.392 13.475a33.023 33.023 0 0 0-3.687 2.365c-6.866 5.1-14.705 7.728-23.029 9.14-.823.14-1.688.121-2.472.369-4.796 1.52-9.743 2.27-14.704 2.91-3.196.413-6.173 1.353-8.44 3.688-2.756 2.836-5.513 5.701-6.243 9.888-.534 3.076-1.305 6.112-1.986 9.162-.432 1.934-.078 3.748.908 5.416.286.486.857 1.022 1.376 1.119 4.512.837 9.029 1.683 13.661 1.521 2.711-.093 5.425-.096 8.139-.144 3.132-.054 6.257-.101 9.36.515 2.064.411 4.101.333 6.174-.335 2.608-.84 5.342-.802 8.068-.558 3.326.297 6.658.554 9.99.772 2.933.19 5.74.844 8.554 1.72 7.059 2.196 13.507 5.485 19.362 9.985 1.653 1.271 3.406 2.413 5.116 3.609 2.741 1.919 5.488 3.822 7.304 6.751.324.519.82.947 1.288 1.359 2.234 1.961 3.938 4.254 5.017 7.069.591 1.543 1.635 2.905 2.389 4.392.754 1.481 1.643 2.957 2.04 4.543.672 2.682 1.896 5.045 3.244 7.416 1.336 2.349 2.542 4.796 3.543 7.305 1.176 2.941 2.593 5.684 4.736 8.039 1.281 1.408 2.207 3.017 2.649 4.902.19.807.43 1.671.9 2.327 3.056 4.268 4.452 9.419 7.379 13.76.919 1.364 1.561 2.945 2.14 4.499 1.232 3.314 2.195 6.734 3.541 10.001 1.43 3.465 3.162 6.808 4.791 10.191.541 1.126 1.241 2.18 1.739 3.322.41.944.628 1.971.872 2.767 1.006 1.219 2.298 1.364 3.48 1.696 6.144 1.731 11.54 4.713 16.065 9.269 1.464 1.476 3.119 2.768 4.729 4.092 3.376 2.776 5.37 6.48 6.299 10.584 1.568 6.922 2.567 13.948 2.529 21.092-.016 2.954-.433 5.839-1.113 8.672-.38 1.588-1.037 3.222-1.984 4.539-2.916 4.061-5.665 8.247-9.089 11.943-4.336 4.678-9.248 8.39-15.45 10.193-2.597.755-5.141 1.701-7.904 1.801-1.238.043-2.47.386-3.697.628-6.307 1.25-12.448.575-18.504-1.466-3.781-1.276-7.357-2.786-10.415-5.516-1.844-1.648-4.112-2.85-6.273-4.106-3.389-1.972-5.859-4.581-6.953-8.466-.444-1.575-1.408-3.004-2.128-4.503-.539-1.124-1.28-2.204-1.564-3.392-1.06-4.447-2.462-8.84-2.327-13.504.067-2.295-.06-4.595.023-6.889.078-2.26-.908-4.016-2.343-5.606-.419-.461-.931-.837-1.383-1.27-.6-.578-1.325-1.087-1.749-1.778-2.507-4.081-5.733-7.698-7.68-12.148-1.931-4.409-4.243-8.609-7.46-12.252a12.487 12.487 0 0 1-1.451-2.037c-2.813-4.877-5.766-9.684-8.349-14.681-2.899-5.615-6.688-10.572-10.592-15.467-1.032-1.293-2.373-2.339-3.576-3.493-1.135-1.092-2.556-1.339-4.048-1.318-.904.014-1.548.504-1.981 1.278-.943 1.682-1.259 3.538-1.335 5.418-.129 3.136.059 6.251.807 9.327 1.282 5.264 2.605 10.523 3.704 15.825.97 4.694 1.75 9.432 2.441 14.176.48 3.308 1.017 6.572 1.953 9.802.81 2.785 1.098 5.722 1.616 8.593.334 1.843.414 3.777 1.05 5.508 1.884 5.123 2.684 10.504 3.993 15.76a276.943 276.943 0 0 1 2.243 9.755c.944 4.493 1.805 9 2.697 13.502.324 1.636.62 3.276.953 4.911.38 1.865.364 3.704-.048 5.58-.476 2.177-1.617 3.788-3.532 4.903-3.822 2.222-7.745 4.089-12.337 3.937-.781-.025-1.575.288-2.495.471.112 1.236.076 2.294.32 3.282.902 3.646 1.894 7.263 2.378 11.004.157 1.223.576 2.443 1.062 3.584 1.639 3.851 2.932 7.807 3.782 11.9.364 1.75 1.644 2.47 3.109 2.615 2.468.244 4.947.237 7.447-.108 4.538-.627 9.076-1.404 13.678-1.432 3.966-.025 7.932-.044 11.896.055 1.447.034 2.908.317 4.322.658 5.969 1.438 11.348 4.114 16.184 7.886 3.906 3.048 6.352 7.18 8.24 11.624a39.377 39.377 0 0 1 2.372 7.772c1.209 6.182.214 12.025-3.348 17.332-.715 1.064-1.598 1.922-2.78 2.44-2.487 1.085-4.799 2.445-7.086 3.924-1.885 1.218-4.172 1.856-6.333 2.597-2.363.809-4.828 1.328-7.168 2.188-2.001.735-4.007 1.103-6.12 1.067-2.505-.042-5.013.008-7.517-.059a121.536 121.536 0 0 0-17.5.779c-5.028.593-10.035.398-15-.039-5.426-.479-10.836-.419-16.256-.507-2.922-.048-5.847-.348-8.759-.221-5.168.223-9.836-1.595-14.568-3.207-1.988-.674-3.836-1.686-5.383-3.121-7.72-7.159-12.174-15.808-11.852-26.547.043-1.438.411-2.877.734-4.289.324-1.42.818-2.797 1.165-4.211.253-1.04.161-2.054-.504-2.976-1.997-2.762-2.835-5.917-3.625-9.216-1.507-6.284-2.531-12.684-4.467-18.866-.935-2.986-1.763-5.994-2.92-8.914-.917-2.314-1.445-4.785-2.144-7.188-.253-.873-.825-1.442-1.705-1.616-3.075-.61-6.158-1.065-9.312-1.053-10.858.047-21.715.035-32.572.035-2.72 0-5.407.222-8.104.629-2.884.435-5.815.555-8.726.817-1.473.132-2.225.711-2.548 2.272-.893 4.308-2.126 8.495-4.094 12.45-.276.553-.442 1.176-.575 1.785-1.309 5.937-3.732 11.495-5.849 17.156-.364.973-.784 1.927-1.14 2.905-1.094 3.004-2.603 5.674-5.596 7.208-.115.059-.118.335-.206.615.684 1.199 1.458 2.436 2.112 3.735.655 1.3 1.463 2.609 1.728 4.004.858 4.501 1.618 9.03 2.159 13.578.217 1.824-.18 3.735-.393 5.595-.252 2.193-1.211 3.985-3.295 4.98-1.389.663-2.301 1.665-2.832 3.147-1.043 2.91-3.272 4.749-5.927 6.145-2.212 1.164-4.398 2.375-6.634 3.485a53.197 53.197 0 0 1-4.583 1.996c-2.912 1.119-5.931 1.948-8.781 3.239-1.763.799-3.655.861-5.535.761a45.815 45.815 0 0 0-9.349.44c-2.024.306-4.167.078-6.224-.172-2.895-.353-5.752-1.014-8.643-1.417-2.063-.287-4.152-.391-6.232-.533-2.289-.156-4.58-.308-6.873-.376-1.659-.05-3.334-.076-4.98.093-2.931.303-5.795.22-8.711-.347-3.683-.714-7.4-1.168-10.972-2.449-1.327-.476-2.875-.389-4.327-.451-2.386-.105-4.378-1.073-6.342-2.374-4.854-3.214-7.874-7.972-10.927-12.692-1.019-1.574-1.497-3.432-1.693-5.33a77.414 77.414 0 0 1-.24-13.132c.174-2.605 1.172-4.838 2.838-6.808 2.02-2.386 4.039-4.774 6.046-7.172 1.23-1.473 2.7-2.624 4.514-3.26 3.542-1.238 7.096-2.428 10.483-4.074.917-.446 1.996-.64 3.023-.76 6.836-.79 13.648-1.936 20.58-.971 2.054.287 4.164.225 6.249.219 1.876-.007 2.525-.714 2.645-2.684.114-1.875.247-3.752.262-5.63.026-3.378.718-6.622 1.706-9.83 1.598-5.179 3.15-10.372 4.71-15.562.158-.525-.412-1.266-.986-1.332-.621-.074-1.242-.156-1.865-.208-2.703-.224-5.413-.374-8.107-.678-1.682-.191-3.3-.242-4.94.304-1.894.632-3.713.208-5.426-.722-.918-.496-1.84-.989-2.71-1.561-1.477-.973-2.264-2.405-2.536-4.135-.032-.208-.096-.421-.069-.621.551-4.159-.212-8.299-.192-12.451.012-2.362.488-4.529 1.824-6.516.577-.858 1.101-1.796 1.429-2.773 1.735-5.161 4.34-9.92 6.586-14.849 2.936-6.443 5.3-13.15 7.797-19.784 1.688-4.488 2.988-9.116 5.708-13.17.668-.994.832-2.333 1.208-3.521 1.08-3.408 2.533-6.603 4.852-9.391.917-1.102 1.636-2.409 2.257-3.712 1.075-2.258 2.119-4.518 3.383-6.693 1.691-2.904 2.377-6.229 3.176-9.453.451-1.816.005-3.742-1.108-5.384-.351-.518-.752-1.006-1.067-1.544-1.573-2.682-4.025-3.575-6.934-3.192-4.6.604-8.946 2.045-12.832 4.636-.843.562-1.467 1.46-2.18 2.212-1.432 1.508-2.67 3.281-4.324 4.48-3.123 2.26-5.471 5.144-7.52 8.301-3.636 5.601-7.238 11.225-10.708 16.929-2.168 3.562-4.078 7.283-6.088 10.939-2.12 3.849-4.467 7.532-7.522 10.736-.844.887-1.47 1.979-2.165 2.936.35 1.183.545 2.211.95 3.145 1.502 3.464 2.457 7.038 3.02 10.788.373 2.487.686 4.94.723 7.451.144 9.813-3.532 18.28-9.097 26.1-.995 1.399-2.3 2.34-3.81 3.143-3.862 2.053-7.587 4.374-11.493 6.333-6.214 3.121-12.665 5.324-19.832 4.42-5.59-.707-11.225-1.12-16.606-2.943-2.367-.801-4.731-1.642-7.016-2.646-2.695-1.183-4.92-3.01-7.035-5.106-3.759-3.72-6.527-8.125-9.332-12.514-.884-1.383-1.544-2.988-1.944-4.583-.659-2.624-1.265-5.304-1.461-7.992-.52-7.101-.252-14.185 1.362-21.164.236-1.016.628-2.009.74-3.036.688-6.391 4.855-10.463 9.54-14.075 3.314-2.553 7.023-4.489 11.108-5.609.795-.217 1.536-.629 2.32-.96.25-.613.568-1.161.699-1.749 1.052-4.743 3.116-9.066 5.52-13.232 3.03-5.25 5.61-10.711 7.987-16.278 2.54-5.946 5.11-11.88 7.762-17.777a49.765 49.765 0 0 1 3.268-6.051c1.783-2.837 3.382-5.749 4.61-8.87.845-2.144 2.006-4.111 3.414-5.954 1.898-2.484 3.626-5.097 5.53-7.576 4.96-6.454 10.033-12.818 15.524-18.833 2.99-3.277 6.49-5.884 10.684-7.461 3.566-1.342 6.657-3.443 9.534-5.895.952-.812 1.919-1.611 2.855-2.443 2.867-2.552 6.2-4.185 9.892-5.164 2.011-.532 4.039-1.042 5.985-1.764 1.98-.733 3.975-1.324 6.08-1.333 2.548-.011 4.966-.573 7.344-1.397 3.362-1.166 6.778-2.042 10.348-2.327 1.44-.115 2.867-.536 4.275-.911 2.005-.532 3.988-1.148 6.104-1.764.112-.548.332-1.133.337-1.72.012-1.662-.109-3.328-.092-4.99.058-5.424.159-10.848.227-16.272.007-.623-.077-1.25-.143-1.872-.224-2.172-1.469-3.322-3.758-3.296-7.908.086-6.411-.066-11.098 5.218-1.1 1.242-1.953 2.702-2.928 4.055-2.228 3.099-4.961 5.595-8.376 7.376-3.885 2.025-7.656 4.32-12.037 5.129-7.797 1.439-15.363 1.068-22.447-3.01-1.68-.966-3.13-2.134-4.014-3.832-1.92-3.683-4.16-7.199-4.907-11.442-.54-3.065-1.664-6.025-2.47-9.048a70.11 70.11 0 0 1-2.369-19.202c.13-8.558.242-17.115.4-25.671.059-3.139.015-6.253-.577-9.356a26.728 26.728 0 0 1-.44-4.351c-.13-5.425-.16-10.853-.29-16.28-.191-8.046 1.62-15.716 4.126-23.293 1.515-4.583 3.908-8.751 5.783-13.161.605-1.423 8.922-11.094 10.152-11.791 6.29-3.572 12.81-5.805 20.292-4.68 5.634.849 10.98 2.491 16.234 4.516 4.928 1.899 9.182 4.925 13.022 8.523 2.812 2.632 4.454 6.014 5.808 9.537.52 1.353.83 2.799 1.132 4.224.882 4.168 2.938 7.777 5.252 11.273 1.118 1.69 2.654 2.604 4.72 2.538.624-.02 1.25.001 1.873-.047 1.135-.089 1.917-.705 2.412-1.713 1.809-3.678 2.497-7.587 1.572-11.555-1.159-4.969-1.007-9.939-.753-14.947.106-2.082.17-4.17.172-6.257.001-3.963.01-7.905.55-11.863.65-4.768.178-9.584-.008-14.381-.144-3.752-.162-7.509-.21-11.264-.074-6.009 4.993-9.728 9.868-10.293.97-.112 2.09.216 3.006.636 2.334 1.072 4.347 2.705 5.31 5.093 1.377 3.42 3.906 5.936 6.413 8.356 2.124 2.049 3.987 4.233 5.72 6.584 1.985 2.691 4.092 5.272 7.124 7.124.415-.38.993-.689 1.233-1.169.934-1.863 1.839-3.748 2.602-5.686.685-1.737 1.409-3.516 1.698-5.344.99-6.23 2.944-12.161 5.427-17.913 1.655-3.832 3.04-7.757 4.516-11.652 1.652-4.361 5.328-6.893 10.077-6.859 2.038.015 3.706 1.112 4.79 2.611 2.062 2.857 4.021 5.787 4.516 9.492 1.137 8.527 3.92 16.613 6.892 24.647 1.225 3.314 2.148 6.741 3.272 10.094.08.238.734.484 1.033.403.58-.159 1.207-.444 1.612-.869.409-.428.585-1.086.848-1.65 2.315-4.953 5.889-9.089 8.904-13.584 1.017-1.516 2.585-2.733 4.088-3.832 1.729-1.262 3.148-2.74 4.189-4.573 1.048-1.844 2.443-3.404 4-4.784 1.074-.951 2.315-1.84 3.639-2.344 1.923-.731 3.948-1.396 6.027-.189 2.656 1.542 4.762 3.57 5.062 6.729.295 3.104.36 6.259.187 9.372-.173 3.112-.247 6.228-.721 9.347-.53 3.484-.418 7.073-.483 10.617-.047 2.54.688 4.969 1.615 7.292.97 2.428 1.31 4.837.402 7.296-.597 1.617-.64 3.259-.636 4.928.008 3.34-.217 6.665-.437 10-.244 3.727.007 7.491.076 11.237.103 5.635.313 11.27.328 16.904.011 4.45.773 8.739 2.457 12.823 1.51 3.659 3.238 7.231 4.932 10.811 1.132 2.393 2.996 3.818 5.614 4.566 3.868 1.106 7.718 1.752 11.734 1.166 1.446-.211 2.908-.292 4.362-.447 2.81-.299 5.076-1.469 7.001-3.648 7.715-8.729 13.315-18.627 16.84-29.713.251-.79.476-1.6.589-2.419.682-4.939 1.955-9.813 1.367-14.888-.164-1.42.044-2.945.377-4.352 1.199-5.059.342-9.988-.938-14.84-1.33-5.037-2.923-10.009-4.532-14.968-.507-1.563-1.372-3.025-2.179-4.473-3.075-5.512-7.237-10.208-11.411-14.87-6.162-6.88-13.142-12.801-21.101-17.552-5.561-3.32-10.751-7.194-15.975-11.01-1.516-1.107-3.042-2.202-4.534-3.343-7.148-5.465-13.911-11.311-19.242-18.676-2.688-3.715-5.72-7.177-8.57-10.775-5.651-7.125-9.5-15.177-12.18-23.824-.371-1.196-.715-2.401-1.095-3.593-1.056-3.309-1.931-3.893-5.505-3.565-1.035.094-2.05.374-3.079.525-.824.12-1.663.292-2.481.237-4.676-.312-6.448-2.197-6.014-7.474.107-1.296 1.024-2.364 2.136-2.952 1.267-.672 2.667-1.255 4.072-1.476 4.339-.683 8.715-.843 13.108-.532 2.079.148 4.167.2 6.252.212 1.51.009 2.438-.89 2.354-2.246-.488-7.916-.846-15.844-1.566-23.738-.512-5.619-.949-11.23-1.038-16.868a66.612 66.612 0 0 0-.102-3.13c-.092-1.49-.84-2.293-2.245-2.538-2.465-.43-4.927-.872-7.387-1.323-3.986-.732-7.422-2.573-10.654-4.99-5.535-4.136-9.255-9.6-11.704-15.922-3.187-8.23-4.998-16.806-5.144-25.645-.122-7.304-.024-14.616.178-21.918.174-6.264.375-5.512 4.548-9.7 1.211-1.216 2.715-1.922 4.412-2.193 3.291-.524 6.556-1.093 9.93-1.076 4.365.023 8.714-.163 13.049-1.116 3.232-.712 6.628-.552 9.972-.317 2.284.161 4.597.263 6.873.084 4.598-.361 9.174-.359 13.76.081 1.243.12 2.504.202 3.75.148 2.33-.098 3.904 1.272 5.432 2.695.426.396.698 1.045.854 1.628 2.668 9.986 3.488 14.821 3.674 25.883.156 9.327-1.626 18.28-4.156 27.114-1.255 4.377-3.218 8.523-6.014 12.277-3.208 4.31-7.37 7.33-11.908 9.96-1.257.728-2.66 1.2-3.954 1.873-.723.374-1.358.916-2.031 1.38Z"/>
  <path fill="#000" d="M223.992 595.834c-.416-3.478 1.263-6.058 3.888-8.01 1.825-1.358 3.82-2.587 5.911-3.466 4.661-1.961 8.774-.429 11.361 3.714 2.697 4.317 2.789 9.09 1.061 13.833-.332.911-1.109 1.865-1.942 2.352-4.759 2.773-9.754 3.413-14.944 1.205-3.408-1.45-5.194-4.03-5.332-7.736-.023-.624-.003-1.25-.003-1.892ZM225 516.6c.224-1.431.328-2.895.696-4.288.914-3.45 3.594-5.716 7.09-6.087 1.028-.108 2.073-.091 3.109-.064a5.43 5.43 0 0 1 2.925.921c1.384.918 2.746 1.886 4.206 2.667 3.297 1.765 4.504 4.707 4.836 8.185.222 2.34-.366 4.548-1.307 6.644-.325.724-.965 1.347-1.571 1.895-2.07 1.872-4.68 2.619-7.297 3.289-.579.148-1.245.082-1.851-.021-3.192-.533-5.841-2.1-7.998-4.465-2.231-2.448-2.95-5.418-2.838-8.676Zm-.603-39.505c0-.416-.009-.831.002-1.247.057-2.277 1.132-4.076 3.041-5.129 2.352-1.298 4.875-2.284 7.329-3.392 2.616-1.18 4.856-.392 6.903 1.352.309.264.685.51.869.852 1.275 2.364 2.742 4.66 3.694 7.15 1.35 3.53.816 6.94-1.643 9.958-1.835 2.253-4.364 3.16-7.071 3.513-5.697.743-12.485-3.476-13.07-10.565-.068-.826-.01-1.662-.01-2.492h-.044Zm22.743 79.526c-.226 5.032-.606 7.749-7.008 9.976-6.596 2.294-14.816-2.435-14.818-10.56 0-1.248.003-2.516.211-3.74.571-3.368 2.42-5.731 5.797-6.647.979-.265 2.076-.415 3.06-.256 1.844.299 3.687.741 5.451 1.353 1.357.47 2.632 1.226 3.876 1.967 2.137 1.275 3.14 3.263 3.299 5.709.053.832.1 1.664.132 2.198Zm-2.688-193.779c-.07 3.679-.525 6.455-2.338 8.967-2.791 3.861-6.746 5.414-11.199 5.906-6.265.694-11.295-2.028-15.688-6.178-1.073-1.014-1.832-2.331-2.077-3.771-.418-2.451-.742-4.929-.894-7.409-.261-4.263 2.076-7.299 5.604-8.954 4.102-1.922 8.496-3.314 13.198-3.077 2.136.108 4.082.672 5.838 1.893.511.355 1.042.684 1.542 1.054 4.144 3.052 6.318 7.069 6.014 11.569Z"/>
</svg>
